<svg width="561" height="131" viewBox="0 0 561 131" fill="none" xmlns="http://www.w3.org/2000/svg">
<g opacity="0.9" filter="url(#filter0_d_52_2)">
<g filter="url(#filter1_d_52_2)">
<path d="M140.988 105.66L146.098 93.859H147.762L146.074 98.5817L140.637 110.922H138.984L140.988 105.66ZM139.43 93.859L140.227 105.648L140.168 110.922H138.633L137.285 93.859H139.43ZM150.152 105.414L154.5 93.859H156.762L150.094 110.922H148.453L150.152 105.414ZM147.938 93.859L149.285 105.871L149.625 110.922H148.09L146.613 98.3824L146.414 93.859H147.938ZM167.203 109.082L166.875 110.922H158.098L158.414 109.082H167.203ZM161.52 93.859L158.555 110.922H156.34L159.305 93.859H161.52ZM167.402 101.195L167.086 103.035H159.457L159.785 101.195H167.402ZM169.723 93.859L169.395 95.7106H160.734L161.062 93.859H169.723ZM177 102.941H172.676L172.969 101.125L176.66 101.136C177.262 101.136 177.828 101.031 178.359 100.82C178.898 100.609 179.348 100.293 179.707 99.8707C180.074 99.4489 180.297 98.9176 180.375 98.277C180.453 97.6676 180.391 97.1793 180.188 96.8121C179.984 96.4371 179.672 96.1676 179.25 96.0035C178.836 95.8317 178.348 95.7379 177.785 95.7223L174.434 95.7106L171.797 110.922H169.582L172.547 93.859L177.832 93.8707C178.543 93.8864 179.199 93.984 179.801 94.1637C180.41 94.3356 180.934 94.6012 181.371 94.9606C181.809 95.3121 182.137 95.7653 182.355 96.3199C182.582 96.8746 182.664 97.5387 182.602 98.3121C182.539 99.1481 182.273 99.8512 181.805 100.422C181.344 100.992 180.762 101.441 180.059 101.769C179.363 102.089 178.641 102.3 177.891 102.402L177 102.941ZM175.535 110.922H170.355L171.914 109.082L175.594 109.093C176.258 109.093 176.871 108.972 177.434 108.73C177.996 108.488 178.461 108.132 178.828 107.664C179.203 107.195 179.434 106.617 179.52 105.929C179.59 105.32 179.543 104.797 179.379 104.359C179.215 103.922 178.934 103.586 178.535 103.351C178.137 103.109 177.629 102.976 177.012 102.953L173.742 102.941L174.082 101.125L178.242 101.136L178.605 101.793C179.309 101.902 179.898 102.152 180.375 102.543C180.859 102.925 181.211 103.41 181.43 103.996C181.656 104.574 181.746 105.211 181.699 105.906C181.613 107.023 181.277 107.957 180.691 108.707C180.113 109.449 179.371 110.007 178.465 110.382C177.559 110.75 176.582 110.929 175.535 110.922ZM194.625 110.922H191.027L191.367 109.082L194.684 109.093C195.926 109.093 197 108.824 197.906 108.285C198.82 107.738 199.555 107 200.109 106.07C200.664 105.132 201.031 104.078 201.211 102.906L201.363 101.851C201.457 101.101 201.469 100.367 201.398 99.6481C201.336 98.9293 201.16 98.2809 200.871 97.7028C200.582 97.1168 200.16 96.6481 199.605 96.2965C199.051 95.9371 198.336 95.7457 197.461 95.7223L193.594 95.7106L193.922 93.859L197.508 93.8707C198.648 93.8942 199.625 94.1285 200.438 94.5739C201.258 95.0114 201.918 95.6012 202.418 96.3434C202.926 97.0856 203.27 97.9332 203.449 98.8864C203.637 99.8395 203.668 100.839 203.543 101.886L203.402 102.906C203.238 104.062 202.914 105.132 202.43 106.117C201.945 107.093 201.324 107.941 200.566 108.66C199.809 109.379 198.93 109.937 197.93 110.336C196.93 110.726 195.828 110.922 194.625 110.922ZM195.176 93.859L192.211 110.922H189.996L192.961 93.859H195.176ZM216.141 109.082L215.812 110.922H207.035L207.352 109.082H216.141ZM210.457 93.859L207.492 110.922H205.277L208.242 93.859H210.457ZM216.34 101.195L216.023 103.035H208.395L208.723 101.195H216.34ZM218.66 93.859L218.332 95.7106H209.672L210 93.859H218.66ZM224.402 108.226L231.492 93.859H233.965L225.164 110.922H223.395L224.402 108.226ZM222.07 93.859L224.66 108.425L224.848 110.922H223.207L219.762 93.859H222.07ZM248.086 95.4996L239.977 110.922H237.621L246.902 93.859H248.414L248.086 95.4996ZM250.031 110.922L247.207 95.2418L247.43 93.859H248.836L252.199 110.922H250.031ZM250.816 104.605L250.488 106.457H241.172L241.5 104.605H250.816ZM270.164 93.859L267.199 110.922H265.055L258.961 97.6676L256.664 110.922H254.449L257.414 93.859H259.547L265.664 107.148L267.973 93.859H270.164ZM275.695 110.922H272.098L272.438 109.082L275.754 109.093C276.996 109.093 278.07 108.824 278.977 108.285C279.891 107.738 280.625 107 281.18 106.07C281.734 105.132 282.102 104.078 282.281 102.906L282.434 101.851C282.527 101.101 282.539 100.367 282.469 99.6481C282.406 98.9293 282.23 98.2809 281.941 97.7028C281.652 97.1168 281.23 96.6481 280.676 96.2965C280.121 95.9371 279.406 95.7457 278.531 95.7223L274.664 95.7106L274.992 93.859L278.578 93.8707C279.719 93.8942 280.695 94.1285 281.508 94.5739C282.328 95.0114 282.988 95.6012 283.488 96.3434C283.996 97.0856 284.34 97.9332 284.52 98.8864C284.707 99.8395 284.738 100.839 284.613 101.886L284.473 102.906C284.309 104.062 283.984 105.132 283.5 106.117C283.016 107.093 282.395 107.941 281.637 108.66C280.879 109.379 280 109.937 279 110.336C278 110.726 276.898 110.922 275.695 110.922ZM276.246 93.859L273.281 110.922H271.066L274.031 93.859H276.246ZM296.883 110.922H293.285L293.625 109.082L296.941 109.093C298.184 109.093 299.258 108.824 300.164 108.285C301.078 107.738 301.812 107 302.367 106.07C302.922 105.132 303.289 104.078 303.469 102.906L303.621 101.851C303.715 101.101 303.727 100.367 303.656 99.6481C303.594 98.9293 303.418 98.2809 303.129 97.7028C302.84 97.1168 302.418 96.6481 301.863 96.2965C301.309 95.9371 300.594 95.7457 299.719 95.7223L295.852 95.7106L296.18 93.859L299.766 93.8707C300.906 93.8942 301.883 94.1285 302.695 94.5739C303.516 95.0114 304.176 95.6012 304.676 96.3434C305.184 97.0856 305.527 97.9332 305.707 98.8864C305.895 99.8395 305.926 100.839 305.801 101.886L305.66 102.906C305.496 104.062 305.172 105.132 304.688 106.117C304.203 107.093 303.582 107.941 302.824 108.66C302.066 109.379 301.188 109.937 300.188 110.336C299.188 110.726 298.086 110.922 296.883 110.922ZM297.434 93.859L294.469 110.922H292.254L295.219 93.859H297.434ZM318.398 109.082L318.07 110.922H309.293L309.609 109.082H318.398ZM312.715 93.859L309.75 110.922H307.535L310.5 93.859H312.715ZM318.598 101.195L318.281 103.035H310.652L310.98 101.195H318.598ZM320.918 93.859L320.59 95.7106H311.93L312.258 93.859H320.918ZM330.352 106.527C330.422 106.011 330.371 105.582 330.199 105.238C330.027 104.886 329.777 104.593 329.449 104.359C329.121 104.117 328.754 103.918 328.348 103.761C327.941 103.597 327.535 103.445 327.129 103.304C326.543 103.101 325.965 102.863 325.395 102.589C324.832 102.316 324.324 101.988 323.871 101.605C323.418 101.214 323.062 100.754 322.805 100.222C322.555 99.691 322.457 99.0699 322.512 98.359C322.574 97.5699 322.797 96.8785 323.18 96.2848C323.562 95.6832 324.051 95.1832 324.645 94.7848C325.238 94.3864 325.891 94.0895 326.602 93.8942C327.312 93.6989 328.031 93.609 328.758 93.6246C329.766 93.6481 330.668 93.8746 331.465 94.3043C332.262 94.7262 332.883 95.3199 333.328 96.0856C333.773 96.8512 333.969 97.7535 333.914 98.7926L331.711 98.7809C331.766 98.1012 331.68 97.5192 331.453 97.0348C331.227 96.5426 330.875 96.1637 330.398 95.8981C329.93 95.6324 329.352 95.4918 328.664 95.4762C328.039 95.4606 327.441 95.5543 326.871 95.7574C326.309 95.9606 325.832 96.277 325.441 96.7067C325.051 97.1285 324.812 97.6715 324.727 98.3356C324.664 98.7965 324.727 99.191 324.914 99.5192C325.102 99.8473 325.359 100.125 325.688 100.351C326.023 100.578 326.387 100.769 326.777 100.925C327.176 101.082 327.555 101.218 327.914 101.336C328.539 101.547 329.141 101.797 329.719 102.086C330.305 102.367 330.82 102.711 331.266 103.117C331.719 103.515 332.062 103.992 332.297 104.547C332.539 105.101 332.629 105.754 332.566 106.504C332.496 107.316 332.266 108.019 331.875 108.613C331.484 109.207 330.984 109.695 330.375 110.078C329.766 110.453 329.098 110.73 328.371 110.91C327.645 111.089 326.914 111.172 326.18 111.156C325.414 111.148 324.688 111.027 324 110.793C323.32 110.55 322.719 110.207 322.195 109.761C321.672 109.316 321.27 108.777 320.988 108.144C320.707 107.504 320.586 106.777 320.625 105.964L322.816 105.976C322.777 106.523 322.836 107.004 322.992 107.418C323.148 107.832 323.383 108.179 323.695 108.461C324.016 108.734 324.395 108.945 324.832 109.093C325.27 109.234 325.75 109.308 326.273 109.316C326.891 109.332 327.492 109.246 328.078 109.058C328.672 108.871 329.176 108.57 329.59 108.156C330.004 107.742 330.258 107.199 330.352 106.527ZM339.938 93.859L336.973 110.922H334.77L337.734 93.859H339.938ZM354.656 102.425L353.648 108.672C353.188 109.312 352.613 109.816 351.926 110.183C351.246 110.543 350.516 110.797 349.734 110.945C348.953 111.093 348.191 111.164 347.449 111.156C346.316 111.14 345.359 110.898 344.578 110.429C343.805 109.961 343.191 109.339 342.738 108.566C342.285 107.793 341.98 106.929 341.824 105.976C341.676 105.023 341.668 104.047 341.801 103.047L341.988 101.722C342.145 100.652 342.418 99.6285 342.809 98.652C343.207 97.6676 343.73 96.7965 344.379 96.0387C345.035 95.2731 345.82 94.6754 346.734 94.2457C347.648 93.8082 348.703 93.6012 349.898 93.6246C350.984 93.6481 351.914 93.8746 352.688 94.3043C353.469 94.734 354.078 95.3356 354.516 96.109C354.961 96.8824 355.223 97.8004 355.301 98.8629H353.121C353.066 98.191 352.91 97.6051 352.652 97.1051C352.402 96.6051 352.039 96.2145 351.562 95.9332C351.094 95.652 350.508 95.4996 349.805 95.4762C348.914 95.4449 348.141 95.609 347.484 95.9684C346.836 96.3199 346.289 96.8004 345.844 97.4098C345.406 98.0114 345.055 98.6871 344.789 99.4371C344.523 100.179 344.332 100.933 344.215 101.699L344.016 103.058C343.93 103.722 343.906 104.418 343.945 105.144C343.992 105.863 344.137 106.535 344.379 107.16C344.629 107.785 345.008 108.297 345.516 108.695C346.023 109.086 346.695 109.289 347.531 109.304C348.008 109.312 348.477 109.281 348.938 109.211C349.406 109.14 349.852 109.015 350.273 108.836C350.695 108.656 351.09 108.402 351.457 108.074L352.148 104.254H348.305L348.633 102.425H354.656ZM372.516 93.859L369.551 110.922H367.406L361.312 97.6676L359.016 110.922H356.801L359.766 93.859H361.898L368.016 107.148L370.324 93.859H372.516ZM384.281 109.082L383.953 110.922H375.176L375.492 109.082H384.281ZM378.598 93.859L375.633 110.922H373.418L376.383 93.859H378.598ZM384.48 101.195L384.164 103.035H376.535L376.863 101.195H384.48ZM386.801 93.859L386.473 95.7106H377.812L378.141 93.859H386.801ZM389.625 93.859L394.969 93.8707C396.008 93.8942 396.926 94.0934 397.723 94.4684C398.52 94.8434 399.125 95.3981 399.539 96.1324C399.961 96.859 400.125 97.777 400.031 98.8864C399.953 99.7692 399.703 100.531 399.281 101.172C398.867 101.804 398.332 102.336 397.676 102.765C397.02 103.187 396.293 103.523 395.496 103.773L394.84 104.007H389.543L389.848 102.168L393.609 102.179C394.297 102.179 394.941 102.054 395.543 101.804C396.152 101.554 396.66 101.187 397.066 100.703C397.48 100.211 397.734 99.6051 397.828 98.8864C397.914 98.1989 397.848 97.6246 397.629 97.1637C397.41 96.7028 397.066 96.3512 396.598 96.109C396.137 95.8668 395.578 95.7379 394.922 95.7223L391.512 95.7106L388.875 110.922H386.66L389.625 93.859ZM396.398 110.922L393.715 103.187L395.895 103.175L398.754 110.769L398.742 110.922H396.398Z" fill="white"/>
</g>
<g filter="url(#filter2_d_52_2)">
<path d="M115.811 31.1198H132.598C135.88 31.1198 138.731 31.6081 141.153 32.5847C143.575 33.5612 145.44 35.0065 146.749 36.9206C148.077 38.8347 148.741 41.1979 148.741 44.0104C148.741 46.4518 148.36 48.4929 147.598 50.1335C146.837 51.7741 145.772 53.1315 144.405 54.2057C143.057 55.2604 141.485 56.1296 139.688 56.8132L136.319 58.7175H122.227L122.169 50.778H132.598C133.907 50.778 134.991 50.5436 135.85 50.0749C136.71 49.6061 137.354 48.9421 137.784 48.0827C138.233 47.2038 138.458 46.1589 138.458 44.9479C138.458 43.7175 138.233 42.6628 137.784 41.7839C137.335 40.905 136.671 40.2311 135.792 39.7624C134.932 39.2936 133.868 39.0593 132.598 39.0593H126.094V73.7761H115.811V31.1198ZM139.161 73.7761L129.727 54.9089L140.626 54.8503L150.177 73.3366V73.7761H139.161ZM153.253 58.2487V57.6335C153.253 55.3093 153.585 53.1706 154.249 51.2175C154.913 49.2448 155.889 47.5358 157.178 46.0905C158.468 44.6452 160.059 43.5222 161.954 42.7214C163.848 41.9011 166.036 41.4909 168.516 41.4909C171.016 41.4909 173.214 41.9011 175.108 42.7214C177.022 43.5222 178.624 44.6452 179.913 46.0905C181.202 47.5358 182.178 49.2448 182.843 51.2175C183.507 53.1706 183.839 55.3093 183.839 57.6335V58.2487C183.839 60.5534 183.507 62.6921 182.843 64.6647C182.178 66.6179 181.202 68.3268 179.913 69.7917C178.624 71.237 177.032 72.36 175.137 73.1608C173.243 73.9616 171.055 74.362 168.575 74.362C166.094 74.362 163.897 73.9616 161.983 73.1608C160.069 72.36 158.468 71.237 157.178 69.7917C155.889 68.3268 154.913 66.6179 154.249 64.6647C153.585 62.6921 153.253 60.5534 153.253 58.2487ZM163.126 57.6335V58.2487C163.126 59.4401 163.214 60.5534 163.389 61.5886C163.565 62.6237 163.858 63.5319 164.268 64.3132C164.678 65.0749 165.235 65.6706 165.938 66.1003C166.641 66.53 167.52 66.7448 168.575 66.7448C169.61 66.7448 170.469 66.53 171.153 66.1003C171.856 65.6706 172.413 65.0749 172.823 64.3132C173.233 63.5319 173.526 62.6237 173.702 61.5886C173.878 60.5534 173.966 59.4401 173.966 58.2487V57.6335C173.966 56.4811 173.878 55.3972 173.702 54.3815C173.526 53.3464 173.233 52.4382 172.823 51.6569C172.413 50.8561 171.856 50.2311 171.153 49.7819C170.45 49.3327 169.571 49.1081 168.516 49.1081C167.481 49.1081 166.612 49.3327 165.909 49.7819C165.225 50.2311 164.678 50.8561 164.268 51.6569C163.858 52.4382 163.565 53.3464 163.389 54.3815C163.214 55.3972 163.126 56.4811 163.126 57.6335ZM206.456 66.5104V28.7761H216.387V73.7761H207.481L206.456 66.5104ZM187.003 58.3073V57.6921C187.003 55.2897 187.266 53.1022 187.794 51.1296C188.321 49.1374 189.102 47.4284 190.137 46.0026C191.173 44.5573 192.462 43.444 194.005 42.6628C195.548 41.8815 197.325 41.4909 199.337 41.4909C201.134 41.4909 202.706 41.9108 204.053 42.7507C205.401 43.571 206.553 44.7233 207.51 46.2077C208.468 47.6921 209.249 49.4304 209.854 51.4225C210.46 53.3952 210.919 55.5241 211.231 57.8093V58.5417C210.919 60.6901 210.46 62.7214 209.854 64.6354C209.249 66.53 208.468 68.2097 207.51 69.6745C206.553 71.1393 205.391 72.2917 204.024 73.1315C202.677 73.9518 201.094 74.362 199.278 74.362C197.266 74.362 195.489 73.9616 193.946 73.1608C192.423 72.36 191.143 71.237 190.108 69.7917C189.093 68.3464 188.321 66.6472 187.794 64.694C187.266 62.7409 187.003 60.612 187.003 58.3073ZM196.876 57.6921V58.3073C196.876 59.4987 196.954 60.6022 197.11 61.6179C197.266 62.6335 197.53 63.5319 197.901 64.3132C198.292 65.0749 198.8 65.6706 199.425 66.1003C200.069 66.53 200.86 66.7448 201.798 66.7448C203.067 66.7448 204.112 66.4421 204.932 65.8366C205.772 65.2311 206.387 64.3718 206.778 63.2585C207.188 62.1452 207.364 60.8366 207.305 59.3327V57.0182C207.344 55.7292 207.257 54.5964 207.042 53.6198C206.827 52.6237 206.485 51.7936 206.016 51.1296C205.567 50.4655 204.991 49.9675 204.288 49.6354C203.604 49.2839 202.794 49.1081 201.856 49.1081C200.938 49.1081 200.157 49.3229 199.512 49.7526C198.887 50.1823 198.38 50.7878 197.989 51.569C197.598 52.3307 197.315 53.239 197.139 54.2936C196.964 55.3288 196.876 56.4616 196.876 57.6921ZM231.944 49.9284V73.7761H222.071V42.0768H231.3L231.944 49.9284ZM241.319 41.8425L241.143 51.0124C240.753 50.9733 240.225 50.9245 239.561 50.8659C238.897 50.8073 238.341 50.778 237.891 50.778C236.739 50.778 235.743 50.9147 234.903 51.1882C234.083 51.4421 233.399 51.8327 232.852 52.36C232.325 52.8679 231.934 53.5124 231.68 54.2936C231.446 55.0749 231.339 55.9831 231.358 57.0182L229.571 55.8464C229.571 53.7175 229.776 51.7839 230.186 50.0456C230.616 48.2878 231.221 46.7741 232.003 45.5046C232.784 44.2155 233.731 43.2292 234.844 42.5456C235.958 41.8425 237.208 41.4909 238.594 41.4909C239.083 41.4909 239.561 41.5202 240.03 41.5788C240.518 41.6374 240.948 41.7253 241.319 41.8425ZM255.147 42.0768V73.7761H245.245V42.0768H255.147ZM244.659 33.903C244.659 32.4968 245.167 31.3444 246.182 30.446C247.198 29.5475 248.516 29.0983 250.137 29.0983C251.759 29.0983 253.077 29.5475 254.093 30.446C255.108 31.3444 255.616 32.4968 255.616 33.903C255.616 35.3093 255.108 36.4616 254.093 37.36C253.077 38.2585 251.759 38.7077 250.137 38.7077C248.516 38.7077 247.198 38.2585 246.182 37.36C245.167 36.4616 244.659 35.3093 244.659 33.903ZM281.163 42.0768H290.128V72.5456C290.128 75.4753 289.454 77.9557 288.106 79.987C286.759 82.0378 284.874 83.5905 282.452 84.6452C280.05 85.7194 277.237 86.2565 274.014 86.2565C272.589 86.2565 271.134 86.071 269.649 85.6999C268.165 85.3483 266.778 84.821 265.489 84.1179C264.2 83.4147 263.116 82.5456 262.237 81.5104L266.368 75.7097C267.169 76.6081 268.175 77.3698 269.385 77.9948C270.596 78.6393 272.022 78.9616 273.663 78.9616C275.089 78.9616 276.28 78.7077 277.237 78.1999C278.214 77.6921 278.956 76.9499 279.464 75.9733C279.971 75.0163 280.225 73.8542 280.225 72.487V49.5768L281.163 42.0768ZM260.098 58.3073V57.6921C260.098 55.2897 260.391 53.1022 260.977 51.1296C261.583 49.1374 262.442 47.4284 263.555 46.0026C264.688 44.5573 266.055 43.444 267.657 42.6628C269.259 41.8815 271.065 41.4909 273.077 41.4909C275.245 41.4909 277.022 41.9108 278.409 42.7507C279.815 43.571 280.938 44.7233 281.778 46.2077C282.637 47.6921 283.302 49.4304 283.77 51.4225C284.259 53.3952 284.669 55.5241 285.001 57.8093V58.5417C284.669 60.6901 284.21 62.7214 283.624 64.6354C283.057 66.53 282.315 68.2097 281.397 69.6745C280.479 71.1393 279.327 72.2917 277.94 73.1315C276.573 73.9518 274.932 74.362 273.018 74.362C271.026 74.362 269.229 73.9616 267.628 73.1608C266.046 72.36 264.688 71.237 263.555 69.7917C262.442 68.3464 261.583 66.6472 260.977 64.694C260.391 62.7409 260.098 60.612 260.098 58.3073ZM269.971 57.6921V58.3073C269.971 59.4987 270.079 60.6022 270.294 61.6179C270.528 62.6335 270.88 63.5319 271.348 64.3132C271.817 65.0749 272.393 65.6706 273.077 66.1003C273.78 66.53 274.6 66.7448 275.538 66.7448C276.964 66.7448 278.116 66.4421 278.995 65.8366C279.874 65.2311 280.509 64.3718 280.899 63.2585C281.29 62.1452 281.456 60.8366 281.397 59.3327V57.0182C281.436 55.7292 281.348 54.5964 281.134 53.6198C280.919 52.6237 280.577 51.7936 280.108 51.1296C279.659 50.4655 279.053 49.9675 278.292 49.6354C277.55 49.2839 276.651 49.1081 275.596 49.1081C274.678 49.1081 273.868 49.3229 273.165 49.7526C272.462 50.1823 271.876 50.7878 271.407 51.569C270.938 52.3307 270.577 53.239 270.323 54.2936C270.089 55.3288 269.971 56.4616 269.971 57.6921ZM294.581 58.2487V57.6335C294.581 55.3093 294.913 53.1706 295.577 51.2175C296.241 49.2448 297.218 47.5358 298.507 46.0905C299.796 44.6452 301.387 43.5222 303.282 42.7214C305.177 41.9011 307.364 41.4909 309.844 41.4909C312.344 41.4909 314.542 41.9011 316.436 42.7214C318.35 43.5222 319.952 44.6452 321.241 46.0905C322.53 47.5358 323.507 49.2448 324.171 51.2175C324.835 53.1706 325.167 55.3093 325.167 57.6335V58.2487C325.167 60.5534 324.835 62.6921 324.171 64.6647C323.507 66.6179 322.53 68.3268 321.241 69.7917C319.952 71.237 318.36 72.36 316.466 73.1608C314.571 73.9616 312.384 74.362 309.903 74.362C307.423 74.362 305.225 73.9616 303.311 73.1608C301.397 72.36 299.796 71.237 298.507 69.7917C297.218 68.3268 296.241 66.6179 295.577 64.6647C294.913 62.6921 294.581 60.5534 294.581 58.2487ZM304.454 57.6335V58.2487C304.454 59.4401 304.542 60.5534 304.718 61.5886C304.893 62.6237 305.186 63.5319 305.596 64.3132C306.007 65.0749 306.563 65.6706 307.266 66.1003C307.969 66.53 308.848 66.7448 309.903 66.7448C310.938 66.7448 311.798 66.53 312.481 66.1003C313.184 65.6706 313.741 65.0749 314.151 64.3132C314.561 63.5319 314.854 62.6237 315.03 61.5886C315.206 60.5534 315.294 59.4401 315.294 58.2487V57.6335C315.294 56.4811 315.206 55.3972 315.03 54.3815C314.854 53.3464 314.561 52.4382 314.151 51.6569C313.741 50.8561 313.184 50.2311 312.481 49.7819C311.778 49.3327 310.899 49.1081 309.844 49.1081C308.809 49.1081 307.94 49.3327 307.237 49.7819C306.553 50.2311 306.007 50.8561 305.596 51.6569C305.186 52.4382 304.893 53.3464 304.718 54.3815C304.542 55.3972 304.454 56.4811 304.454 57.6335ZM361.993 59.3034H351.387V51.364H361.993C363.438 51.364 364.61 51.1198 365.509 50.6315C366.407 50.1432 367.061 49.4694 367.471 48.61C367.901 47.7311 368.116 46.7448 368.116 45.6511C368.116 44.4792 367.901 43.3952 367.471 42.3991C367.061 41.403 366.407 40.6022 365.509 39.9968C364.61 39.3718 363.438 39.0593 361.993 39.0593H355.255V73.7761H344.971V31.1198H361.993C365.411 31.1198 368.35 31.7448 370.811 32.9948C373.292 34.2448 375.196 35.9636 376.524 38.1511C377.852 40.319 378.516 42.7995 378.516 45.5925C378.516 48.3464 377.852 50.7487 376.524 52.7995C375.196 54.8503 373.292 56.4518 370.811 57.6042C368.35 58.737 365.411 59.3034 361.993 59.3034ZM399.698 65.8073V52.7409C399.698 51.8425 399.571 51.071 399.317 50.4265C399.063 49.7819 398.663 49.2839 398.116 48.9323C397.569 48.5612 396.837 48.3757 395.919 48.3757C395.177 48.3757 394.542 48.5026 394.014 48.7565C393.487 49.0104 393.087 49.3913 392.813 49.8991C392.54 50.4069 392.403 51.0515 392.403 51.8327H382.53C382.53 50.3679 382.852 49.0104 383.497 47.7604C384.161 46.4909 385.098 45.3874 386.309 44.4499C387.54 43.5124 389.005 42.7897 390.704 42.2819C392.423 41.7546 394.337 41.4909 396.446 41.4909C398.966 41.4909 401.212 41.9108 403.184 42.7507C405.177 43.5905 406.749 44.8503 407.901 46.53C409.053 48.1901 409.63 50.28 409.63 52.7995V65.778C409.63 67.8483 409.747 69.4206 409.981 70.4948C410.216 71.5495 410.548 72.4772 410.977 73.278V73.7761H401.075C400.606 72.7995 400.255 71.6081 400.02 70.2018C399.805 68.7761 399.698 67.3112 399.698 65.8073ZM400.899 54.4108L400.958 59.6843H396.593C395.675 59.6843 394.893 59.8112 394.249 60.0651C393.624 60.319 393.116 60.6706 392.725 61.1198C392.354 61.5495 392.081 62.0378 391.905 62.5847C391.749 63.1315 391.671 63.7077 391.671 64.3132C391.671 64.8991 391.807 65.4265 392.081 65.8952C392.374 66.3444 392.764 66.696 393.253 66.9499C393.741 67.2038 394.288 67.3307 394.893 67.3307C395.987 67.3307 396.915 67.1257 397.677 66.7155C398.458 66.2858 399.053 65.7682 399.464 65.1628C399.874 64.5573 400.079 63.9909 400.079 63.4636L402.247 67.5065C401.856 68.2878 401.407 69.0788 400.899 69.8796C400.411 70.6804 399.796 71.4225 399.053 72.1061C398.331 72.7702 397.442 73.3171 396.387 73.7468C395.333 74.1569 394.053 74.362 392.55 74.362C390.596 74.362 388.8 73.9616 387.159 73.1608C385.538 72.36 384.239 71.2468 383.262 69.821C382.286 68.3757 381.798 66.7155 381.798 64.8405C381.798 63.1999 382.091 61.735 382.677 60.446C383.282 59.1569 384.19 58.0632 385.401 57.1647C386.612 56.2663 388.155 55.5827 390.03 55.114C391.905 54.6452 394.112 54.4108 396.651 54.4108H400.899ZM431.719 64.8698C431.719 64.3229 431.534 63.8542 431.163 63.4636C430.811 63.0534 430.186 62.6823 429.288 62.3503C428.389 61.9987 427.13 61.6472 425.509 61.2956C423.966 60.9636 422.51 60.5241 421.143 59.9772C419.796 59.4304 418.614 58.7663 417.598 57.985C416.583 57.2038 415.782 56.2761 415.196 55.2018C414.63 54.1276 414.346 52.8972 414.346 51.5104C414.346 50.1628 414.63 48.8932 415.196 47.7018C415.782 46.4909 416.632 45.4265 417.745 44.5085C418.878 43.571 420.255 42.8386 421.876 42.3112C423.497 41.7643 425.343 41.4909 427.413 41.4909C430.264 41.4909 432.725 41.9304 434.796 42.8093C436.866 43.6686 438.458 44.8796 439.571 46.4421C440.704 47.985 441.27 49.7722 441.27 51.8034H431.397C431.397 51.0026 431.26 50.319 430.987 49.7526C430.733 49.1862 430.313 48.7565 429.727 48.4636C429.141 48.1511 428.36 47.9948 427.384 47.9948C426.7 47.9948 426.075 48.1218 425.509 48.3757C424.962 48.6296 424.522 48.9811 424.19 49.4304C423.858 49.8796 423.692 50.4069 423.692 51.0124C423.692 51.4421 423.79 51.8327 423.985 52.1843C424.2 52.5163 424.522 52.8288 424.952 53.1218C425.382 53.3952 425.928 53.6491 426.593 53.8835C427.257 54.0983 428.057 54.2936 428.995 54.4694C431.124 54.86 433.116 55.4167 434.971 56.1393C436.827 56.862 438.331 57.8874 439.483 59.2155C440.655 60.5436 441.241 62.3307 441.241 64.5768C441.241 65.9831 440.919 67.2819 440.274 68.4733C439.63 69.6452 438.702 70.6804 437.491 71.5788C436.28 72.4577 434.825 73.1413 433.126 73.6296C431.427 74.1179 429.512 74.362 427.384 74.362C424.356 74.362 421.798 73.8249 419.708 72.7507C417.618 71.6569 416.036 70.2897 414.962 68.6491C413.907 66.989 413.38 65.3093 413.38 63.61H422.579C422.618 64.5866 422.852 65.3874 423.282 66.0124C423.731 66.6374 424.327 67.0964 425.069 67.3893C425.811 67.6823 426.671 67.8288 427.647 67.8288C428.546 67.8288 429.288 67.7018 429.874 67.4479C430.479 67.194 430.938 66.8522 431.251 66.4225C431.563 65.9733 431.719 65.4557 431.719 64.8698ZM462.481 64.8698C462.481 64.3229 462.296 63.8542 461.925 63.4636C461.573 63.0534 460.948 62.6823 460.05 62.3503C459.151 61.9987 457.891 61.6472 456.27 61.2956C454.727 60.9636 453.272 60.5241 451.905 59.9772C450.557 59.4304 449.376 58.7663 448.36 57.985C447.344 57.2038 446.544 56.2761 445.958 55.2018C445.391 54.1276 445.108 52.8972 445.108 51.5104C445.108 50.1628 445.391 48.8932 445.958 47.7018C446.544 46.4909 447.393 45.4265 448.507 44.5085C449.639 43.571 451.016 42.8386 452.637 42.3112C454.259 41.7643 456.104 41.4909 458.175 41.4909C461.026 41.4909 463.487 41.9304 465.557 42.8093C467.628 43.6686 469.219 44.8796 470.333 46.4421C471.466 47.985 472.032 49.7722 472.032 51.8034H462.159C462.159 51.0026 462.022 50.319 461.749 49.7526C461.495 49.1862 461.075 48.7565 460.489 48.4636C459.903 48.1511 459.122 47.9948 458.145 47.9948C457.462 47.9948 456.837 48.1218 456.27 48.3757C455.723 48.6296 455.284 48.9811 454.952 49.4304C454.62 49.8796 454.454 50.4069 454.454 51.0124C454.454 51.4421 454.552 51.8327 454.747 52.1843C454.962 52.5163 455.284 52.8288 455.714 53.1218C456.143 53.3952 456.69 53.6491 457.354 53.8835C458.018 54.0983 458.819 54.2936 459.757 54.4694C461.885 54.86 463.878 55.4167 465.733 56.1393C467.589 56.862 469.093 57.8874 470.245 59.2155C471.417 60.5436 472.003 62.3307 472.003 64.5768C472.003 65.9831 471.68 67.2819 471.036 68.4733C470.391 69.6452 469.464 70.6804 468.253 71.5788C467.042 72.4577 465.587 73.1413 463.887 73.6296C462.188 74.1179 460.274 74.362 458.145 74.362C455.118 74.362 452.559 73.8249 450.469 72.7507C448.38 71.6569 446.798 70.2897 445.723 68.6491C444.669 66.989 444.141 65.3093 444.141 63.61H453.341C453.38 64.5866 453.614 65.3874 454.044 66.0124C454.493 66.6374 455.089 67.0964 455.831 67.3893C456.573 67.6823 457.432 67.8288 458.409 67.8288C459.307 67.8288 460.05 67.7018 460.635 67.4479C461.241 67.194 461.7 66.8522 462.012 66.4225C462.325 65.9733 462.481 65.4557 462.481 64.8698ZM475.401 58.2487V57.6335C475.401 55.3093 475.733 53.1706 476.397 51.2175C477.061 49.2448 478.038 47.5358 479.327 46.0905C480.616 44.6452 482.208 43.5222 484.102 42.7214C485.997 41.9011 488.184 41.4909 490.665 41.4909C493.165 41.4909 495.362 41.9011 497.257 42.7214C499.171 43.5222 500.772 44.6452 502.061 46.0905C503.35 47.5358 504.327 49.2448 504.991 51.2175C505.655 53.1706 505.987 55.3093 505.987 57.6335V58.2487C505.987 60.5534 505.655 62.6921 504.991 64.6647C504.327 66.6179 503.35 68.3268 502.061 69.7917C500.772 71.237 499.18 72.36 497.286 73.1608C495.391 73.9616 493.204 74.362 490.723 74.362C488.243 74.362 486.046 73.9616 484.132 73.1608C482.218 72.36 480.616 71.237 479.327 69.7917C478.038 68.3268 477.061 66.6179 476.397 64.6647C475.733 62.6921 475.401 60.5534 475.401 58.2487ZM485.274 57.6335V58.2487C485.274 59.4401 485.362 60.5534 485.538 61.5886C485.714 62.6237 486.007 63.5319 486.417 64.3132C486.827 65.0749 487.384 65.6706 488.087 66.1003C488.79 66.53 489.669 66.7448 490.723 66.7448C491.759 66.7448 492.618 66.53 493.302 66.1003C494.005 65.6706 494.561 65.0749 494.971 64.3132C495.382 63.5319 495.675 62.6237 495.85 61.5886C496.026 60.5534 496.114 59.4401 496.114 58.2487V57.6335C496.114 56.4811 496.026 55.3972 495.85 54.3815C495.675 53.3464 495.382 52.4382 494.971 51.6569C494.561 50.8561 494.005 50.2311 493.302 49.7819C492.598 49.3327 491.719 49.1081 490.665 49.1081C489.63 49.1081 488.76 49.3327 488.057 49.7819C487.374 50.2311 486.827 50.8561 486.417 51.6569C486.007 52.4382 485.714 53.3464 485.538 54.3815C485.362 55.3972 485.274 56.4811 485.274 57.6335ZM526.993 64.8698C526.993 64.3229 526.807 63.8542 526.436 63.4636C526.085 63.0534 525.46 62.6823 524.561 62.3503C523.663 61.9987 522.403 61.6472 520.782 61.2956C519.239 60.9636 517.784 60.5241 516.417 59.9772C515.069 59.4304 513.887 58.7663 512.872 57.985C511.856 57.2038 511.055 56.2761 510.469 55.2018C509.903 54.1276 509.62 52.8972 509.62 51.5104C509.62 50.1628 509.903 48.8932 510.469 47.7018C511.055 46.4909 511.905 45.4265 513.018 44.5085C514.151 43.571 515.528 42.8386 517.149 42.3112C518.77 41.7643 520.616 41.4909 522.686 41.4909C525.538 41.4909 527.999 41.9304 530.069 42.8093C532.139 43.6686 533.731 44.8796 534.844 46.4421C535.977 47.985 536.544 49.7722 536.544 51.8034H526.671C526.671 51.0026 526.534 50.319 526.26 49.7526C526.007 49.1862 525.587 48.7565 525.001 48.4636C524.415 48.1511 523.634 47.9948 522.657 47.9948C521.973 47.9948 521.348 48.1218 520.782 48.3757C520.235 48.6296 519.796 48.9811 519.464 49.4304C519.132 49.8796 518.966 50.4069 518.966 51.0124C518.966 51.4421 519.063 51.8327 519.259 52.1843C519.473 52.5163 519.796 52.8288 520.225 53.1218C520.655 53.3952 521.202 53.6491 521.866 53.8835C522.53 54.0983 523.331 54.2936 524.268 54.4694C526.397 54.86 528.389 55.4167 530.245 56.1393C532.1 56.862 533.604 57.8874 534.757 59.2155C535.928 60.5436 536.514 62.3307 536.514 64.5768C536.514 65.9831 536.192 67.2819 535.548 68.4733C534.903 69.6452 533.975 70.6804 532.764 71.5788C531.553 72.4577 530.098 73.1413 528.399 73.6296C526.7 74.1179 524.786 74.362 522.657 74.362C519.63 74.362 517.071 73.8249 514.981 72.7507C512.891 71.6569 511.309 70.2897 510.235 68.6491C509.18 66.989 508.653 65.3093 508.653 63.61H517.852C517.891 64.5866 518.126 65.3874 518.555 66.0124C519.005 66.6374 519.6 67.0964 520.343 67.3893C521.085 67.6823 521.944 67.8288 522.921 67.8288C523.819 67.8288 524.561 67.7018 525.147 67.4479C525.753 67.194 526.212 66.8522 526.524 66.4225C526.837 65.9733 526.993 65.4557 526.993 64.8698Z" fill="white"/>
</g>
<g filter="url(#filter3_d_52_2)">
<path fill-rule="evenodd" clip-rule="evenodd" d="M67.2119 38.0441L67.0096 42.4437L72 45.9152L66.5 54C67.524 59.2364 71.0333 63.16 77.4716 65.0424C73.7518 66.6738 66.4516 72.1391 67.0096 80.9487C67.0417 81.4564 67.0768 81.9757 67.1126 82.5046C67.8525 93.4473 68.1695 110.898 48.8753 110.314C49.7119 110.981 82.0749 119.124 86.5388 100.526C87.0037 98.2826 87.0967 91.2267 83.7489 80.9487C79.2307 64.2893 85.1301 67.3945 91.2807 70.632C93.2054 71.6451 95.1546 72.6711 96.8169 73.1086V55.067C95.7792 55.6051 94.6507 56.2375 93.4933 56.8861C86.4182 60.8511 78.2561 65.4252 83.0514 52.8068C87.2362 41.7947 98.3958 6.92312 49.5728 22.2177C50.4826 22.1844 51.5769 22.2177 52.0872 22.2177C55.017 22.2177 55.7119 22.0072 59.3374 23.7512L64.7119 26.5176C70.9891 24.4783 78.2119 28.5222 78.7119 35.5383L74.2119 42.5545L67.2119 38.0441Z" fill="white"/>
<path fill-rule="evenodd" clip-rule="evenodd" d="M28.2267 54.6421C31.4502 56.0558 37.3625 60.3486 38.5196 67.202L30 81.1685C30.5 85.6789 34.5 90.1893 41.5 90.6905C44.0441 94.1516 48.4542 97.6989 56.1255 97.4669C45.431 101.953 23.6234 108.724 19.1595 90.1255C18.6946 87.8823 18.6016 80.8264 21.9494 70.5485C26.1343 57.701 18.6469 53.8523 8 62.7078V44.6662C19.1595 54.6416 25.9948 51.2161 22.6469 42.4064C18.4621 31.3944 7.30253 -3.47719 56.1255 11.8174C50.5457 11.6134 39.2467 13.408 38.6887 22.2177C38.5361 24.6282 38.6507 27.3318 38.7694 30.1297C39.1929 40.1135 39.6673 51.297 28.2267 54.6421ZM25.5 98.7089C31.4742 97.0499 34.6604 95.8529 39.9543 93.0856C33.6771 93.6974 28.465 86.8265 28 84.1755C26.3553 89.6221 25.8301 92.812 25.5 98.7089Z" fill="white"/>
</g>
</g>
<defs>
<filter id="filter0_d_52_2" x="0" y="0" width="560.544" height="136.658" filterUnits="userSpaceOnUse" color-interpolation-filters="sRGB">
<feFlood flood-opacity="0" result="BackgroundImageFix"/>
<feColorMatrix in="SourceAlpha" type="matrix" values="0 0 0 0 0 0 0 0 0 0 0 0 0 0 0 0 0 0 127 0" result="hardAlpha"/>
<feOffset dx="8" dy="8"/>
<feGaussianBlur stdDeviation="8"/>
<feComposite in2="hardAlpha" operator="out"/>
<feColorMatrix type="matrix" values="0 0 0 0 0 0 0 0 0 0 0 0 0 0 0 0 0 0 0.15 0"/>
<feBlend mode="plus-lighter" in2="BackgroundImageFix" result="effect1_dropShadow_52_2"/>
<feBlend mode="normal" in="SourceGraphic" in2="effect1_dropShadow_52_2" result="shape"/>
</filter>
<filter id="filter1_d_52_2" x="137.285" y="93.5895" width="265.887" height="20.5898" filterUnits="userSpaceOnUse" color-interpolation-filters="sRGB">
<feFlood flood-opacity="0" result="BackgroundImageFix"/>
<feColorMatrix in="SourceAlpha" type="matrix" values="0 0 0 0 0 0 0 0 0 0 0 0 0 0 0 0 0 0 127 0" result="hardAlpha"/>
<feOffset dx="2" dy="2"/>
<feGaussianBlur stdDeviation="0.5"/>
<feComposite in2="hardAlpha" operator="out"/>
<feColorMatrix type="matrix" values="0 0 0 0 0 0 0 0 0 0 0 0 0 0 0 0 0 0 0.25 0"/>
<feBlend mode="normal" in2="BackgroundImageFix" result="effect1_dropShadow_52_2"/>
<feBlend mode="normal" in="SourceGraphic" in2="effect1_dropShadow_52_2" result="shape"/>
</filter>
<filter id="filter2_d_52_2" x="115.811" y="28.7761" width="423.732" height="60.4805" filterUnits="userSpaceOnUse" color-interpolation-filters="sRGB">
<feFlood flood-opacity="0" result="BackgroundImageFix"/>
<feColorMatrix in="SourceAlpha" type="matrix" values="0 0 0 0 0 0 0 0 0 0 0 0 0 0 0 0 0 0 127 0" result="hardAlpha"/>
<feOffset dx="2" dy="2"/>
<feGaussianBlur stdDeviation="0.5"/>
<feComposite in2="hardAlpha" operator="out"/>
<feColorMatrix type="matrix" values="0 0 0 0 0 0 0 0 0 0 0 0 0 0 0 0 0 0 0.25 0"/>
<feBlend mode="normal" in2="BackgroundImageFix" result="effect1_dropShadow_52_2"/>
<feBlend mode="normal" in="SourceGraphic" in2="effect1_dropShadow_52_2" result="shape"/>
</filter>
<filter id="filter3_d_52_2" x="4" y="8" width="96.8169" height="112.658" filterUnits="userSpaceOnUse" color-interpolation-filters="sRGB">
<feFlood flood-opacity="0" result="BackgroundImageFix"/>
<feColorMatrix in="SourceAlpha" type="matrix" values="0 0 0 0 0 0 0 0 0 0 0 0 0 0 0 0 0 0 127 0" result="hardAlpha"/>
<feOffset dy="4"/>
<feGaussianBlur stdDeviation="2"/>
<feComposite in2="hardAlpha" operator="out"/>
<feColorMatrix type="matrix" values="0 0 0 0 0 0 0 0 0 0 0 0 0 0 0 0 0 0 0.25 0"/>
<feBlend mode="normal" in2="BackgroundImageFix" result="effect1_dropShadow_52_2"/>
<feBlend mode="normal" in="SourceGraphic" in2="effect1_dropShadow_52_2" result="shape"/>
</filter>
</defs>
</svg>
