<svg width="146" height="145" viewBox="0 0 146 145" fill="none" xmlns="http://www.w3.org/2000/svg">
<g filter="url(#filter0_d_82_70)">
<path d="M22 68C22 95.8904 44.8335 118.5 73 118.5" stroke="#1F49D3" stroke-width="38" stroke-linecap="round" stroke-linejoin="round"/>
<path d="M73 0C78.0391 0 82.8718 2.00178 86.435 5.56497C89.9982 9.12816 92 13.9609 92 19C92 24.0391 89.9982 28.8718 86.435 32.435C82.8718 35.9982 78.0391 38 73 38C72.1451 38.0001 71.3075 38.0321 70.4642 38.0965C55.2954 38.9558 41.963 52.1171 41.0977 67.0079C41.0362 67.7888 41.0039 68.5659 41.0003 69.3568C41.0001 69.4045 41 69.4522 41 69.5C41 74.5391 38.9982 79.3718 35.435 82.935C31.8718 86.4982 27.0391 88.5 22 88.5C16.9609 88.5 12.1282 86.4982 8.56497 82.935C5.00178 79.3718 3 74.5391 3 69.5C3 69.3957 3.00023 69.2914 3.0007 69.1872C3.00859 67.4586 3.0793 65.7479 3.21529 64.0209C5.32098 30.5477 34.5086 2.15927 67.5639 0.20738C69.3821 0.0684329 71.1792 0.000227771 73 0Z" fill="#69B4E3"/>
<path d="M124 68C124 95.8904 101.167 118.5 73 118.5" stroke="#1F49D3" stroke-width="38" stroke-linecap="round"/>
<path d="M124 69.5C124 41.6096 101.167 19 73 19" stroke="#1F49D3" stroke-width="38" stroke-linecap="round"/>
<path d="M53.0057 77.2386C51.642 77.2386 50.4688 77.0114 49.4858 76.5568C48.5085 76.0966 47.7869 75.4659 47.321 74.6648C46.8551 73.858 46.7102 72.9261 46.8864 71.8693H51.071C51.0142 72.25 51.0682 72.5881 51.233 72.8835C51.4034 73.1733 51.6619 73.4006 52.0085 73.5653C52.3608 73.7301 52.7699 73.8125 53.2358 73.8125C53.7699 73.8125 54.2585 73.7074 54.7017 73.4972C55.1506 73.2869 55.5199 73.0057 55.8097 72.6534C56.0994 72.3011 56.2784 71.9148 56.3466 71.4943C56.4148 71.0852 56.3523 70.7415 56.1591 70.4631C55.9659 70.1847 55.6705 69.9744 55.2727 69.8324C54.8807 69.6903 54.4006 69.6193 53.8324 69.6193H52.0511L52.5455 66.6193H54.1477C54.6705 66.6193 55.1506 66.5227 55.5881 66.3295C56.0313 66.1364 56.3977 65.8693 56.6875 65.5284C56.9773 65.1875 57.1591 64.7955 57.233 64.3523C57.2898 64 57.2614 63.6932 57.1477 63.4318C57.0341 63.1648 56.8352 62.9602 56.5511 62.8182C56.2727 62.6705 55.9091 62.5966 55.4602 62.5966C54.983 62.5966 54.5227 62.679 54.0795 62.8438C53.642 63.0085 53.2727 63.2415 52.9716 63.5426C52.6705 63.8437 52.4886 64.1932 52.4261 64.5909H48.4205C48.5966 63.5568 49.0284 62.6449 49.7159 61.8551C50.4034 61.0597 51.2614 60.4375 52.2898 59.9886C53.3239 59.5341 54.4489 59.3068 55.6648 59.3068C56.9489 59.3068 58.0341 59.5483 58.9205 60.0312C59.8125 60.5085 60.4631 61.1449 60.8722 61.9403C61.2869 62.7301 61.4148 63.5909 61.2557 64.5227C61.0909 65.5398 60.642 66.3267 59.9091 66.8835C59.1761 67.4347 58.2642 67.7784 57.1733 67.9148V68.0426C58.3778 68.1903 59.2983 68.6534 59.9347 69.4318C60.5767 70.2045 60.8068 71.1477 60.625 72.2614C60.4716 73.2216 60.0426 74.0767 59.3381 74.8267C58.6335 75.5767 57.733 76.1676 56.6364 76.5994C55.5455 77.0256 54.3352 77.2386 53.0057 77.2386ZM68.9879 77.2386C67.63 77.2386 66.451 77.0227 65.451 76.5909C64.451 76.1534 63.7067 75.5568 63.218 74.8011C62.7351 74.0455 62.5732 73.196 62.7322 72.2528C62.8572 71.5369 63.1442 70.8807 63.593 70.2841C64.0419 69.6818 64.593 69.1818 65.2464 68.7841C65.9055 68.3864 66.6072 68.1307 67.3516 68.017V67.8892C66.4368 67.7074 65.7351 67.2557 65.2464 66.5341C64.7578 65.8068 64.593 64.9602 64.7521 63.9943C64.8999 63.0909 65.3061 62.2869 65.9709 61.5824C66.6413 60.8722 67.4908 60.3153 68.5192 59.9119C69.5476 59.5085 70.6754 59.3068 71.9027 59.3068C73.1357 59.3068 74.201 59.5142 75.0987 59.929C76.0021 60.3381 76.6726 60.9006 77.1101 61.6165C77.5476 62.3324 77.6925 63.1449 77.5447 64.054C77.3857 65.0312 76.9396 65.8722 76.2067 66.5767C75.4737 67.2756 74.6101 67.7131 73.6158 67.8892V68.017C74.3203 68.1307 74.9368 68.3892 75.4652 68.7926C75.9993 69.196 76.3913 69.7017 76.6413 70.3097C76.8913 70.9119 76.951 71.5795 76.8203 72.3125C76.6669 73.2443 76.2266 74.0824 75.4993 74.8267C74.772 75.571 73.843 76.1591 72.7124 76.5909C71.5874 77.0227 70.3459 77.2386 68.9879 77.2386ZM69.4396 74.2472C69.9624 74.2472 70.4368 74.1477 70.8629 73.9489C71.2947 73.7443 71.6499 73.4659 71.9283 73.1136C72.2124 72.7557 72.3913 72.3523 72.4652 71.9034C72.5391 71.4489 72.4936 71.0483 72.3288 70.7017C72.1641 70.3551 71.8999 70.0852 71.5362 69.892C71.1783 69.6932 70.7464 69.5938 70.2408 69.5938C69.7294 69.5938 69.2578 69.696 68.826 69.9006C68.3942 70.1051 68.0362 70.3864 67.7521 70.7443C67.468 71.0966 67.2862 71.5028 67.2067 71.9631C67.1328 72.4062 67.1783 72.8011 67.343 73.1477C67.5135 73.4943 67.7777 73.7642 68.1357 73.9574C68.4993 74.1506 68.9339 74.2472 69.4396 74.2472ZM70.6925 66.6193C71.147 66.6193 71.5618 66.5256 71.9368 66.3381C72.3118 66.1506 72.6243 65.8949 72.8743 65.571C73.1243 65.2415 73.2834 64.8722 73.3516 64.4631C73.4254 64.0483 73.3913 63.6875 73.2493 63.3807C73.1129 63.0682 72.8885 62.8267 72.576 62.6562C72.2692 62.4858 71.897 62.4006 71.4595 62.4006C71.005 62.4006 70.5874 62.4915 70.2067 62.6733C69.8317 62.8551 69.5163 63.1051 69.2607 63.4233C69.005 63.7358 68.843 64.0994 68.7749 64.5142C68.701 64.9233 68.7351 65.2869 68.8771 65.6051C69.0249 65.9176 69.255 66.1648 69.5675 66.3466C69.88 66.5284 70.255 66.6193 70.6925 66.6193ZM88.7202 73.7273L88.8906 72.8068C89.0213 72.0909 89.2912 71.429 89.7003 70.821C90.1094 70.2131 90.6378 69.7244 91.2855 69.3551C91.9332 68.9858 92.6804 68.8011 93.527 68.8011C94.402 68.8011 95.1094 68.9858 95.6491 69.3551C96.1889 69.7188 96.5611 70.2045 96.7656 70.8125C96.9759 71.4148 97.0099 72.0795 96.8679 72.8068L96.6974 73.7273C96.5668 74.4375 96.2969 75.0994 95.8878 75.7131C95.4844 76.321 94.956 76.8097 94.3026 77.179C93.6491 77.5483 92.8935 77.733 92.0355 77.733C91.1776 77.733 90.4787 77.5483 89.9389 77.179C89.4048 76.8097 89.0327 76.321 88.8224 75.7131C88.6179 75.0994 88.5838 74.4375 88.7202 73.7273ZM91.6094 72.8068L91.4389 73.7273C91.3707 74.0852 91.3991 74.4347 91.5241 74.7756C91.6548 75.1108 91.9588 75.2784 92.4361 75.2784C92.9361 75.2784 93.2969 75.1136 93.5185 74.7841C93.7401 74.4545 93.8849 74.1023 93.9531 73.7273L94.1236 72.8068C94.1918 72.4261 94.1719 72.0682 94.0639 71.733C93.956 71.392 93.6435 71.2216 93.1264 71.2216C92.6491 71.2216 92.294 71.392 92.0611 71.733C91.8281 72.0682 91.6776 72.4261 91.6094 72.8068ZM81.3395 63.7386L81.4759 62.8182C81.5838 62.0852 81.8452 61.4176 82.2599 60.8153C82.6747 60.2131 83.2116 59.7301 83.8707 59.3665C84.5298 58.9972 85.2798 58.8125 86.1207 58.8125C86.9901 58.8125 87.6889 58.9972 88.2173 59.3665C88.7457 59.7301 89.1122 60.2131 89.3168 60.8153C89.5213 61.4176 89.5696 62.0852 89.4616 62.8182L89.3253 63.7386C89.2173 64.4659 88.9588 65.1307 88.5497 65.733C88.1406 66.3352 87.6037 66.8153 86.9389 67.1733C86.2798 67.5312 85.5213 67.7102 84.6634 67.7102C83.7997 67.7102 83.1037 67.5312 82.5753 67.1733C82.0526 66.8097 81.6889 66.3267 81.4844 65.7244C81.2855 65.1165 81.2372 64.4545 81.3395 63.7386ZM84.2202 62.8182L84.0838 63.7386C84.027 64.1193 84.0582 64.4744 84.1776 64.804C84.2969 65.1278 84.5923 65.2898 85.0639 65.2898C85.5582 65.2898 85.919 65.1278 86.1463 64.804C86.3736 64.4744 86.5156 64.1193 86.5724 63.7386L86.7088 62.8182C86.7656 62.4375 86.7429 62.0795 86.6406 61.7443C86.5384 61.4034 86.2315 61.233 85.7202 61.233C85.2372 61.233 84.8793 61.4062 84.6463 61.7528C84.419 62.0994 84.277 62.4545 84.2202 62.8182ZM80.3764 77L95.2741 59.5455H97.7287L82.831 77H80.3764Z" fill="white"/>
</g>
<defs>
<filter id="filter0_d_82_70" x="0" y="0" width="146" height="144.5" filterUnits="userSpaceOnUse" color-interpolation-filters="sRGB">
<feFlood flood-opacity="0" result="BackgroundImageFix"/>
<feColorMatrix in="SourceAlpha" type="matrix" values="0 0 0 0 0 0 0 0 0 0 0 0 0 0 0 0 0 0 127 0" result="hardAlpha"/>
<feOffset dy="4"/>
<feGaussianBlur stdDeviation="1.5"/>
<feComposite in2="hardAlpha" operator="out"/>
<feColorMatrix type="matrix" values="0 0 0 0 0 0 0 0 0 0 0 0 0 0 0 0 0 0 0.25 0"/>
<feBlend mode="normal" in2="BackgroundImageFix" result="effect1_dropShadow_82_70"/>
<feBlend mode="normal" in="SourceGraphic" in2="effect1_dropShadow_82_70" result="shape"/>
</filter>
</defs>
</svg>
