<svg width="146" height="145" viewBox="0 0 146 145" fill="none" xmlns="http://www.w3.org/2000/svg">
<g filter="url(#filter0_d_82_70)">
<path d="M124 68C124 95.8904 101.167 118.5 73 118.5" stroke="#1F49D3" stroke-width="38"/>
<path d="M22 68C22 95.8904 44.8335 118.5 73 118.5" stroke="#69B4E3" stroke-width="38" stroke-linecap="round" stroke-linejoin="round"/>
<path d="M124 69.5C124 41.6096 101.167 19 73 19" stroke="#1F49D3" stroke-width="38" stroke-linecap="round"/>
<path d="M73 0C73 12.6667 73 25.3333 73 38C72.1451 38.0001 71.3075 38.0321 70.4642 38.0965C55.2954 38.9558 41.963 52.1171 41.0977 67.0079C41.0362 67.7888 41.0039 68.5659 41.0003 69.3568C41.0001 69.4045 41 69.4522 41 69.5C41 74.5391 38.9982 79.3718 35.435 82.935C31.8718 86.4982 27.0391 88.5 22 88.5C16.9609 88.5 12.1282 86.4982 8.56497 82.935C5.00178 79.3718 3 74.5391 3 69.5C3 69.3957 3.00023 69.2914 3.0007 69.1872C3.00859 67.4586 3.0793 65.7479 3.21529 64.0209C5.32098 30.5477 34.5086 2.15927 67.5639 0.20738C69.3821 0.0684329 71.1792 0.000227771 73 0Z" fill="#69B4E3"/>
<path d="M53.3466 77.2386C52.3636 77.2386 51.4517 77.0767 50.6108 76.7528C49.7699 76.429 49.0568 75.9176 48.4716 75.2188C47.892 74.5142 47.4943 73.5966 47.2784 72.4659C47.0682 71.3352 47.0994 69.9659 47.3722 68.358C47.6108 66.9375 47.9915 65.6705 48.5142 64.5568C49.0369 63.4375 49.6761 62.4886 50.4318 61.7102C51.1875 60.9261 52.0398 60.3295 52.9886 59.9205C53.9375 59.5114 54.9574 59.3068 56.0483 59.3068C57.2813 59.3068 58.3352 59.5398 59.2102 60.0057C60.0852 60.4716 60.7472 61.1023 61.196 61.8977C61.6506 62.6932 61.8523 63.5824 61.8011 64.5653H57.7102C57.7045 64.0028 57.5227 63.5852 57.1648 63.3125C56.8068 63.0398 56.3494 62.9034 55.7926 62.9034C54.696 62.9034 53.7841 63.3807 53.0568 64.3352C52.3295 65.2898 51.821 66.554 51.5312 68.1278L51.6676 67.9148C51.9972 67.392 52.4091 66.9517 52.9034 66.5938C53.3977 66.2358 53.9403 65.9631 54.5312 65.7756C55.1278 65.5881 55.7415 65.4943 56.3722 65.4943C57.446 65.4943 58.3551 65.7472 59.0994 66.2528C59.8438 66.7528 60.375 67.4403 60.6932 68.3153C61.017 69.1903 61.0852 70.1818 60.8977 71.2898C60.7045 72.4773 60.2557 73.517 59.5511 74.4091C58.8523 75.3011 57.9688 75.9972 56.9006 76.4972C55.8324 76.9915 54.6477 77.2386 53.3466 77.2386ZM53.5 74C54.0511 74 54.5653 73.8693 55.0426 73.608C55.5256 73.3466 55.929 72.9886 56.2528 72.5341C56.5824 72.0795 56.7869 71.5653 56.8665 70.9915C56.946 70.4972 56.9091 70.0597 56.7557 69.679C56.608 69.2926 56.3636 68.9886 56.0227 68.767C55.6875 68.5455 55.2727 68.4347 54.7784 68.4347C54.3693 68.4347 53.9773 68.5114 53.6023 68.6648C53.2273 68.8182 52.8835 69.0312 52.571 69.304C52.2642 69.5767 52.0085 69.8949 51.804 70.2585C51.5994 70.6222 51.4631 71.0142 51.3949 71.4347C51.321 71.9403 51.3608 72.3864 51.5142 72.7727C51.6676 73.1534 51.9148 73.4545 52.2557 73.6761C52.5966 73.892 53.0114 74 53.5 74ZM62.6087 74.1023L63.1541 70.8125L72.1797 59.5455H75.103L74.3615 64.0114H72.6655L67.3814 70.642L67.3473 70.7784H77.7109L77.157 74.1023H62.6087ZM70.5604 77L71.2166 73.0966L71.5405 71.6562L73.5433 59.5455H77.4893L74.5916 77H70.5604ZM89.2124 73.7273L89.3828 72.8068C89.5135 72.0909 89.7834 71.429 90.1925 70.821C90.6016 70.2131 91.13 69.7244 91.7777 69.3551C92.4254 68.9858 93.1726 68.8011 94.0192 68.8011C94.8942 68.8011 95.6016 68.9858 96.1413 69.3551C96.6811 69.7188 97.0533 70.2045 97.2578 70.8125C97.468 71.4148 97.5021 72.0795 97.3601 72.8068L97.1896 73.7273C97.0589 74.4375 96.7891 75.0994 96.38 75.7131C95.9766 76.321 95.4482 76.8097 94.7947 77.179C94.1413 77.5483 93.3857 77.733 92.5277 77.733C91.6697 77.733 90.9709 77.5483 90.4311 77.179C89.897 76.8097 89.5249 76.321 89.3146 75.7131C89.1101 75.0994 89.076 74.4375 89.2124 73.7273ZM92.1016 72.8068L91.9311 73.7273C91.8629 74.0852 91.8913 74.4347 92.0163 74.7756C92.147 75.1108 92.451 75.2784 92.9283 75.2784C93.4283 75.2784 93.7891 75.1136 94.0107 74.7841C94.2322 74.4545 94.3771 74.1023 94.4453 73.7273L94.6158 72.8068C94.6839 72.4261 94.6641 72.0682 94.5561 71.733C94.4482 71.392 94.1357 71.2216 93.6186 71.2216C93.1413 71.2216 92.7862 71.392 92.5533 71.733C92.3203 72.0682 92.1697 72.4261 92.1016 72.8068ZM81.8317 63.7386L81.968 62.8182C82.076 62.0852 82.3374 61.4176 82.7521 60.8153C83.1669 60.2131 83.7038 59.7301 84.3629 59.3665C85.022 58.9972 85.772 58.8125 86.6129 58.8125C87.4822 58.8125 88.1811 58.9972 88.7095 59.3665C89.2379 59.7301 89.6044 60.2131 89.8089 60.8153C90.0135 61.4176 90.0618 62.0852 89.9538 62.8182L89.8175 63.7386C89.7095 64.4659 89.451 65.1307 89.0419 65.733C88.6328 66.3352 88.0959 66.8153 87.4311 67.1733C86.772 67.5312 86.0135 67.7102 85.1555 67.7102C84.2919 67.7102 83.5959 67.5312 83.0675 67.1733C82.5447 66.8097 82.1811 66.3267 81.9766 65.7244C81.7777 65.1165 81.7294 64.4545 81.8317 63.7386ZM84.7124 62.8182L84.576 63.7386C84.5192 64.1193 84.5504 64.4744 84.6697 64.804C84.7891 65.1278 85.0845 65.2898 85.5561 65.2898C86.0504 65.2898 86.4112 65.1278 86.6385 64.804C86.8658 64.4744 87.0078 64.1193 87.0646 63.7386L87.201 62.8182C87.2578 62.4375 87.2351 62.0795 87.1328 61.7443C87.0305 61.4034 86.7237 61.233 86.2124 61.233C85.7294 61.233 85.3714 61.4062 85.1385 61.7528C84.9112 62.0994 84.7692 62.4545 84.7124 62.8182ZM80.8686 77L95.7663 59.5455H98.2209L83.3232 77H80.8686Z" fill="white"/>
</g>
<defs>
<filter id="filter0_d_82_70" x="0" y="0" width="146" height="144.5" filterUnits="userSpaceOnUse" color-interpolation-filters="sRGB">
<feFlood flood-opacity="0" result="BackgroundImageFix"/>
<feColorMatrix in="SourceAlpha" type="matrix" values="0 0 0 0 0 0 0 0 0 0 0 0 0 0 0 0 0 0 127 0" result="hardAlpha"/>
<feOffset dy="4"/>
<feGaussianBlur stdDeviation="1.5"/>
<feComposite in2="hardAlpha" operator="out"/>
<feColorMatrix type="matrix" values="0 0 0 0 0 0 0 0 0 0 0 0 0 0 0 0 0 0 0.25 0"/>
<feBlend mode="normal" in2="BackgroundImageFix" result="effect1_dropShadow_82_70"/>
<feBlend mode="normal" in="SourceGraphic" in2="effect1_dropShadow_82_70" result="shape"/>
</filter>
</defs>
</svg>
