<svg width="146" height="145" viewBox="0 0 146 145" fill="none" xmlns="http://www.w3.org/2000/svg">
<g filter="url(#filter0_d_82_70)">
<path d="M22 68C22 95.8904 44.8335 118.5 73 118.5" stroke="#1F49D3" stroke-width="38" stroke-linejoin="round"/>
<path d="M124 68C124 95.8904 101.167 118.5 73 118.5" stroke="#1F49D3" stroke-width="38" stroke-linecap="round"/>
<path d="M124 69.5C124 41.6096 101.167 19 73 19" stroke="#1F49D3" stroke-width="38" stroke-linecap="round"/>
<path d="M73 0C73 12.6667 73 25.3333 73 38C72.1451 38.0001 71.3075 38.0321 70.4642 38.0965C55.2954 38.9558 41.963 52.1171 41.0977 67.0079C41.0362 67.7888 41.0039 68.5659 41.0003 69.3568C41.0001 69.4045 41 69.4522 41 69.5C41 74.5391 38.9982 79.3718 35.435 82.935C31.8718 86.4982 27.0391 88.5 22 88.5C16.9609 88.5 12.1282 86.4982 8.56497 82.935C5.00178 79.3718 3 74.5391 3 69.5C3 69.3957 3.00023 69.2914 3.0007 69.1872C3.00859 67.4586 3.0793 65.7479 3.21529 64.0209C5.32098 30.5477 34.5086 2.15927 67.5639 0.20738C69.3821 0.0684329 71.1792 0.000227771 73 0Z" fill="#69B4E3"/>
<path d="M53.0057 77.2386C51.642 77.2386 50.4688 77.0114 49.4858 76.5568C48.5085 76.0966 47.7869 75.4659 47.321 74.6648C46.8551 73.858 46.7102 72.9261 46.8864 71.8693H51.071C51.0142 72.25 51.0682 72.5881 51.233 72.8835C51.4034 73.1733 51.6619 73.4006 52.0085 73.5653C52.3608 73.7301 52.7699 73.8125 53.2358 73.8125C53.7699 73.8125 54.2585 73.7074 54.7017 73.4972C55.1506 73.2869 55.5199 73.0057 55.8097 72.6534C56.0994 72.3011 56.2784 71.9148 56.3466 71.4943C56.4148 71.0852 56.3523 70.7415 56.1591 70.4631C55.9659 70.1847 55.6705 69.9744 55.2727 69.8324C54.8807 69.6903 54.4006 69.6193 53.8324 69.6193H52.0511L52.5455 66.6193H54.1477C54.6705 66.6193 55.1506 66.5227 55.5881 66.3295C56.0313 66.1364 56.3977 65.8693 56.6875 65.5284C56.9773 65.1875 57.1591 64.7955 57.233 64.3523C57.2898 64 57.2614 63.6932 57.1477 63.4318C57.0341 63.1648 56.8352 62.9602 56.5511 62.8182C56.2727 62.6705 55.9091 62.5966 55.4602 62.5966C54.983 62.5966 54.5227 62.679 54.0795 62.8438C53.642 63.0085 53.2727 63.2415 52.9716 63.5426C52.6705 63.8437 52.4886 64.1932 52.4261 64.5909H48.4205C48.5966 63.5568 49.0284 62.6449 49.7159 61.8551C50.4034 61.0597 51.2614 60.4375 52.2898 59.9886C53.3239 59.5341 54.4489 59.3068 55.6648 59.3068C56.9489 59.3068 58.0341 59.5483 58.9205 60.0312C59.8125 60.5085 60.4631 61.1449 60.8722 61.9403C61.2869 62.7301 61.4148 63.5909 61.2557 64.5227C61.0909 65.5398 60.642 66.3267 59.9091 66.8835C59.1761 67.4347 58.2642 67.7784 57.1733 67.9148V68.0426C58.3778 68.1903 59.2983 68.6534 59.9347 69.4318C60.5767 70.2045 60.8068 71.1477 60.625 72.2614C60.4716 73.2216 60.0426 74.0767 59.3381 74.8267C58.6335 75.5767 57.733 76.1676 56.6364 76.5994C55.5455 77.0256 54.3352 77.2386 53.0057 77.2386ZM68.8516 77.2386C67.5845 77.2386 66.4936 77.0085 65.5788 76.5483C64.6641 76.0881 63.9879 75.4545 63.5504 74.6477C63.1129 73.8409 62.968 72.9148 63.1158 71.8693H67.2067C67.1328 72.5057 67.3061 73.0199 67.7266 73.4119C68.1527 73.804 68.7038 74 69.38 74C69.9197 74 70.4112 73.8835 70.8544 73.6506C71.3033 73.4176 71.6783 73.0909 71.9794 72.6705C72.2805 72.25 72.4766 71.7614 72.5675 71.2045C72.6641 70.642 72.63 70.1506 72.4652 69.7301C72.3004 69.304 72.0305 68.9744 71.6555 68.7415C71.2805 68.5085 70.826 68.392 70.2919 68.392C69.7805 68.392 69.2805 68.5057 68.7919 68.733C68.3089 68.9545 67.9169 69.2614 67.6158 69.6534L64.0021 68.9545L66.3288 59.5455H77.5277L76.9737 62.946H69.2436L68.1612 67.0625H68.2635C68.6328 66.5795 69.1669 66.1818 69.8658 65.8693C70.5646 65.5511 71.326 65.392 72.1499 65.392C73.1953 65.392 74.0845 65.6364 74.8175 66.125C75.5561 66.608 76.0902 67.2812 76.4197 68.1449C76.7493 69.0028 76.8203 69.983 76.6328 71.0852C76.4453 72.2841 75.9936 73.3466 75.2777 74.2727C74.5675 75.1932 73.6584 75.9176 72.5504 76.446C71.4482 76.9744 70.2152 77.2386 68.8516 77.2386ZM88.2983 73.7273L88.4688 72.8068C88.5994 72.0909 88.8693 71.429 89.2784 70.821C89.6875 70.2131 90.2159 69.7244 90.8636 69.3551C91.5114 68.9858 92.2585 68.8011 93.1051 68.8011C93.9801 68.8011 94.6875 68.9858 95.2273 69.3551C95.767 69.7188 96.1392 70.2045 96.3438 70.8125C96.554 71.4148 96.5881 72.0795 96.446 72.8068L96.2756 73.7273C96.1449 74.4375 95.875 75.0994 95.4659 75.7131C95.0625 76.321 94.5341 76.8097 93.8807 77.179C93.2273 77.5483 92.4716 77.733 91.6136 77.733C90.7557 77.733 90.0568 77.5483 89.517 77.179C88.983 76.8097 88.6108 76.321 88.4006 75.7131C88.196 75.0994 88.1619 74.4375 88.2983 73.7273ZM91.1875 72.8068L91.017 73.7273C90.9489 74.0852 90.9773 74.4347 91.1023 74.7756C91.233 75.1108 91.5369 75.2784 92.0142 75.2784C92.5142 75.2784 92.875 75.1136 93.0966 74.7841C93.3182 74.4545 93.4631 74.1023 93.5312 73.7273L93.7017 72.8068C93.7699 72.4261 93.75 72.0682 93.642 71.733C93.5341 71.392 93.2216 71.2216 92.7045 71.2216C92.2273 71.2216 91.8722 71.392 91.6392 71.733C91.4063 72.0682 91.2557 72.4261 91.1875 72.8068ZM80.9176 63.7386L81.054 62.8182C81.1619 62.0852 81.4233 61.4176 81.8381 60.8153C82.2528 60.2131 82.7898 59.7301 83.4489 59.3665C84.108 58.9972 84.858 58.8125 85.6989 58.8125C86.5682 58.8125 87.267 58.9972 87.7955 59.3665C88.3239 59.7301 88.6903 60.2131 88.8949 60.8153C89.0994 61.4176 89.1477 62.0852 89.0398 62.8182L88.9034 63.7386C88.7955 64.4659 88.5369 65.1307 88.1278 65.733C87.7188 66.3352 87.1818 66.8153 86.517 67.1733C85.858 67.5312 85.0994 67.7102 84.2415 67.7102C83.3778 67.7102 82.6818 67.5312 82.1534 67.1733C81.6307 66.8097 81.267 66.3267 81.0625 65.7244C80.8636 65.1165 80.8153 64.4545 80.9176 63.7386ZM83.7983 62.8182L83.6619 63.7386C83.6051 64.1193 83.6364 64.4744 83.7557 64.804C83.875 65.1278 84.1705 65.2898 84.642 65.2898C85.1364 65.2898 85.4972 65.1278 85.7244 64.804C85.9517 64.4744 86.0938 64.1193 86.1506 63.7386L86.2869 62.8182C86.3438 62.4375 86.321 62.0795 86.2188 61.7443C86.1165 61.4034 85.8097 61.233 85.2983 61.233C84.8153 61.233 84.4574 61.4062 84.2244 61.7528C83.9972 62.0994 83.8551 62.4545 83.7983 62.8182ZM79.9545 77L94.8523 59.5455H97.3068L82.4091 77H79.9545Z" fill="white"/>
</g>
<defs>
<filter id="filter0_d_82_70" x="0" y="0" width="146" height="144.5" filterUnits="userSpaceOnUse" color-interpolation-filters="sRGB">
<feFlood flood-opacity="0" result="BackgroundImageFix"/>
<feColorMatrix in="SourceAlpha" type="matrix" values="0 0 0 0 0 0 0 0 0 0 0 0 0 0 0 0 0 0 127 0" result="hardAlpha"/>
<feOffset dy="4"/>
<feGaussianBlur stdDeviation="1.5"/>
<feComposite in2="hardAlpha" operator="out"/>
<feColorMatrix type="matrix" values="0 0 0 0 0 0 0 0 0 0 0 0 0 0 0 0 0 0 0.25 0"/>
<feBlend mode="normal" in2="BackgroundImageFix" result="effect1_dropShadow_82_70"/>
<feBlend mode="normal" in="SourceGraphic" in2="effect1_dropShadow_82_70" result="shape"/>
</filter>
</defs>
</svg>
