<svg version="1.1" viewBox="0.0 0.0 656.0 134.0" fill="none" stroke="none" stroke-linecap="square" stroke-miterlimit="10" width="656" height="134" xmlns:xlink="http://www.w3.org/1999/xlink" xmlns="http://www.w3.org/2000/svg"><path fill="#ffffff" fill-opacity="0.0" d="M0 0L656.0 0L656.0 134.0L0 134.0L0 0Z" fill-rule="nonzero"/><path stroke="#cccccc" stroke-width="1.0" stroke-linecap="butt" d="M139.5 6.5L139.5 107.5" fill-rule="nonzero"/><path stroke="#cccccc" stroke-width="1.0" stroke-linecap="butt" d="M294.5 6.5L294.5 107.5" fill-rule="nonzero"/><path stroke="#cccccc" stroke-width="1.0" stroke-linecap="butt" d="M449.5 6.5L449.5 107.5" fill-rule="nonzero"/><path stroke="#cccccc" stroke-width="1.0" stroke-linecap="butt" d="M604.5 6.5L604.5 107.5" fill-rule="nonzero"/><clipPath id="id_0"><path d="M6.7 6.7L649.3 6.7L649.3 107.3L6.7 107.3L6.7 6.7Z" clip-rule="nonzero"/></clipPath><path fill="#00ff00" fill-opacity="0.5019608" clip-path="url(#id_0)" d="M6.7 94.725L28.858622 94.725L51.017242 82.15L73.175865 82.15L95.33448 94.725L117.4931 69.575L139.65172 57.0L161.81035 44.425L183.96896 6.7L206.12758 94.725L228.28621 82.15L250.44482 44.425L272.60345 31.85L294.76205 94.725L316.9207 69.575L339.0793 69.575L361.23795 69.575L383.39655 82.15L405.55518 94.725L427.7138 44.425L449.8724 57.0L472.03104 31.85L494.18967 57.0L516.34827 82.15L538.5069 94.725L560.6655 44.425L582.82416 31.85L604.9828 57.0L627.14136 94.725L649.3 44.425L649.3 107.3L627.14136 107.3L604.9828 107.3L582.82416 107.3L560.6655 107.3L538.5069 107.3L516.34827 107.3L494.18967 107.3L472.03104 107.3L449.8724 107.3L427.7138 107.3L405.55518 107.3L383.39655 107.3L361.23795 107.3L339.0793 107.3L316.9207 107.3L294.76205 107.3L272.60345 107.3L250.44482 107.3L228.28621 107.3L206.12758 107.3L183.96896 107.3L161.81035 107.3L139.65172 107.3L117.4931 107.3L95.33448 107.3L73.175865 107.3L51.017242 107.3L28.858622 107.3L6.7 107.3Z" fill-rule="nonzero"/><path stroke="#00ff00" stroke-width="1.0" stroke-linecap="butt" clip-path="url(#id_0)" d="M6.7 94.725L28.858622 94.725L51.017242 82.15L73.175865 82.15L95.33448 94.725L117.4931 69.575L139.65172 57.0L161.81035 44.425L183.96896 6.7L206.12758 94.725L228.28621 82.15L250.44482 44.425L272.60345 31.85L294.76205 94.725L316.9207 69.575L339.0793 69.575L361.23795 69.575L383.39655 82.15L405.55518 94.725L427.7138 44.425L449.8724 57.0L472.03104 31.85L494.18967 57.0L516.34827 82.15L538.5069 94.725L560.6655 44.425L582.82416 31.85L604.9828 57.0L627.14136 94.725L649.3 44.425" fill-rule="nonzero"/><path fill="#00ff00" clip-path="url(#id_0)" d="M9.7 94.725C9.7 96.38185 8.356854 97.725 6.7 97.725C5.0431457 97.725 3.7 96.38185 3.7 94.725C3.7 93.068146 5.0431457 91.725 6.7 91.725C8.356854 91.725 9.7 93.068146 9.7 94.725Z" fill-rule="nonzero"/><path fill="#00ff00" clip-path="url(#id_0)" d="M31.858622 94.725C31.858622 96.38185 30.515474 97.725 28.858622 97.725C27.201767 97.725 25.858622 96.38185 25.858622 94.725C25.858622 93.068146 27.201767 91.725 28.858622 91.725C30.515474 91.725 31.858622 93.068146 31.858622 94.725Z" fill-rule="nonzero"/><path fill="#00ff00" clip-path="url(#id_0)" d="M54.017242 82.15C54.017242 83.806854 52.674095 85.15 51.017242 85.15C49.360386 85.15 48.017242 83.806854 48.017242 82.15C48.017242 80.49315 49.360386 79.15 51.017242 79.15C52.674095 79.15 54.017242 80.49315 54.017242 82.15Z" fill-rule="nonzero"/><path fill="#00ff00" clip-path="url(#id_0)" d="M76.175865 82.15C76.175865 83.806854 74.83272 85.15 73.175865 85.15C71.519005 85.15 70.175865 83.806854 70.175865 82.15C70.175865 80.49315 71.519005 79.15 73.175865 79.15C74.83272 79.15 76.175865 80.49315 76.175865 82.15Z" fill-rule="nonzero"/><path fill="#00ff00" clip-path="url(#id_0)" d="M98.33448 94.725C98.33448 96.38185 96.99134 97.725 95.33448 97.725C93.67763 97.725 92.33448 96.38185 92.33448 94.725C92.33448 93.068146 93.67763 91.725 95.33448 91.725C96.99134 91.725 98.33448 93.068146 98.33448 94.725Z" fill-rule="nonzero"/><path fill="#00ff00" clip-path="url(#id_0)" d="M120.4931 69.575C120.4931 71.23186 119.149956 72.575 117.4931 72.575C115.83625 72.575 114.4931 71.23186 114.4931 69.575C114.4931 67.918144 115.83625 66.575 117.4931 66.575C119.149956 66.575 120.4931 67.918144 120.4931 69.575Z" fill-rule="nonzero"/><path fill="#00ff00" clip-path="url(#id_0)" d="M142.65172 57.0C142.65172 58.656853 141.30858 60.0 139.65172 60.0C137.99487 60.0 136.65172 58.656853 136.65172 57.0C136.65172 55.343147 137.99487 54.0 139.65172 54.0C141.30858 54.0 142.65172 55.343147 142.65172 57.0Z" fill-rule="nonzero"/><path fill="#00ff00" clip-path="url(#id_0)" d="M164.81035 44.425C164.81035 46.081856 163.4672 47.425 161.81035 47.425C160.15349 47.425 158.81035 46.081856 158.81035 44.425C158.81035 42.768147 160.15349 41.425 161.81035 41.425C163.4672 41.425 164.81035 42.768147 164.81035 44.425Z" fill-rule="nonzero"/><path fill="#00ff00" clip-path="url(#id_0)" d="M186.96896 6.7C186.96896 8.356854 185.62582 9.7 183.96896 9.7C182.31212 9.7 180.96896 8.356854 180.96896 6.7C180.96896 5.0431457 182.31212 3.7 183.96896 3.7C185.62582 3.7 186.96896 5.0431457 186.96896 6.7Z" fill-rule="nonzero"/><path fill="#00ff00" clip-path="url(#id_0)" d="M209.12758 94.725C209.12758 96.38185 207.78444 97.725 206.12758 97.725C204.47073 97.725 203.12758 96.38185 203.12758 94.725C203.12758 93.068146 204.47073 91.725 206.12758 91.725C207.78444 91.725 209.12758 93.068146 209.12758 94.725Z" fill-rule="nonzero"/><path fill="#00ff00" clip-path="url(#id_0)" d="M231.28621 82.15C231.28621 83.806854 229.94305 85.15 228.28621 85.15C226.62935 85.15 225.28621 83.806854 225.28621 82.15C225.28621 80.49315 226.62935 79.15 228.28621 79.15C229.94305 79.15 231.28621 80.49315 231.28621 82.15Z" fill-rule="nonzero"/><path fill="#00ff00" clip-path="url(#id_0)" d="M253.44482 44.425C253.44482 46.081856 252.10168 47.425 250.44482 47.425C248.78798 47.425 247.44482 46.081856 247.44482 44.425C247.44482 42.768147 248.78798 41.425 250.44482 41.425C252.10168 41.425 253.44482 42.768147 253.44482 44.425Z" fill-rule="nonzero"/><path fill="#00ff00" clip-path="url(#id_0)" d="M275.60345 31.85C275.60345 33.506855 274.2603 34.85 272.60345 34.85C270.9466 34.85 269.60345 33.506855 269.60345 31.85C269.60345 30.193146 270.9466 28.85 272.60345 28.85C274.2603 28.85 275.60345 30.193146 275.60345 31.85Z" fill-rule="nonzero"/><path fill="#00ff00" clip-path="url(#id_0)" d="M297.76205 94.725C297.76205 96.38185 296.4189 97.725 294.76205 97.725C293.10522 97.725 291.76205 96.38185 291.76205 94.725C291.76205 93.068146 293.10522 91.725 294.76205 91.725C296.4189 91.725 297.76205 93.068146 297.76205 94.725Z" fill-rule="nonzero"/><path fill="#00ff00" clip-path="url(#id_0)" d="M319.9207 69.575C319.9207 71.23186 318.57755 72.575 316.9207 72.575C315.26382 72.575 313.9207 71.23186 313.9207 69.575C313.9207 67.918144 315.26382 66.575 316.9207 66.575C318.57755 66.575 319.9207 67.918144 319.9207 69.575Z" fill-rule="nonzero"/><path fill="#00ff00" clip-path="url(#id_0)" d="M342.0793 69.575C342.0793 71.23186 340.73618 72.575 339.0793 72.575C337.42245 72.575 336.0793 71.23186 336.0793 69.575C336.0793 67.918144 337.42245 66.575 339.0793 66.575C340.73618 66.575 342.0793 67.918144 342.0793 69.575Z" fill-rule="nonzero"/><path fill="#00ff00" clip-path="url(#id_0)" d="M364.23795 69.575C364.23795 71.23186 362.89478 72.575 361.23795 72.575C359.5811 72.575 358.23795 71.23186 358.23795 69.575C358.23795 67.918144 359.5811 66.575 361.23795 66.575C362.89478 66.575 364.23795 67.918144 364.23795 69.575Z" fill-rule="nonzero"/><path fill="#00ff00" clip-path="url(#id_0)" d="M386.39655 82.15C386.39655 83.806854 385.0534 85.15 383.39655 85.15C381.7397 85.15 380.39655 83.806854 380.39655 82.15C380.39655 80.49315 381.7397 79.15 383.39655 79.15C385.0534 79.15 386.39655 80.49315 386.39655 82.15Z" fill-rule="nonzero"/><path fill="#00ff00" clip-path="url(#id_0)" d="M408.55518 94.725C408.55518 96.38185 407.21204 97.725 405.55518 97.725C403.89832 97.725 402.55518 96.38185 402.55518 94.725C402.55518 93.068146 403.89832 91.725 405.55518 91.725C407.21204 91.725 408.55518 93.068146 408.55518 94.725Z" fill-rule="nonzero"/><path fill="#00ff00" clip-path="url(#id_0)" d="M430.7138 44.425C430.7138 46.081856 429.37064 47.425 427.7138 47.425C426.05695 47.425 424.7138 46.081856 424.7138 44.425C424.7138 42.768147 426.05695 41.425 427.7138 41.425C429.37064 41.425 430.7138 42.768147 430.7138 44.425Z" fill-rule="nonzero"/><path fill="#00ff00" clip-path="url(#id_0)" d="M452.8724 57.0C452.8724 58.656853 451.52927 60.0 449.8724 60.0C448.21555 60.0 446.8724 58.656853 446.8724 57.0C446.8724 55.343147 448.21555 54.0 449.8724 54.0C451.52927 54.0 452.8724 55.343147 452.8724 57.0Z" fill-rule="nonzero"/><path fill="#00ff00" clip-path="url(#id_0)" d="M475.03104 31.85C475.03104 33.506855 473.6879 34.85 472.03104 34.85C470.37418 34.85 469.03104 33.506855 469.03104 31.85C469.03104 30.193146 470.37418 28.85 472.03104 28.85C473.6879 28.85 475.03104 30.193146 475.03104 31.85Z" fill-rule="nonzero"/><path fill="#00ff00" clip-path="url(#id_0)" d="M497.18967 57.0C497.18967 58.656853 495.8465 60.0 494.18967 60.0C492.5328 60.0 491.18967 58.656853 491.18967 57.0C491.18967 55.343147 492.5328 54.0 494.18967 54.0C495.8465 54.0 497.18967 55.343147 497.18967 57.0Z" fill-rule="nonzero"/><path fill="#00ff00" clip-path="url(#id_0)" d="M519.34827 82.15C519.34827 83.806854 518.0051 85.15 516.34827 85.15C514.6914 85.15 513.34827 83.806854 513.34827 82.15C513.34827 80.49315 514.6914 79.15 516.34827 79.15C518.0051 79.15 519.34827 80.49315 519.34827 82.15Z" fill-rule="nonzero"/><path fill="#00ff00" clip-path="url(#id_0)" d="M541.5069 94.725C541.5069 96.38185 540.16376 97.725 538.5069 97.725C536.85004 97.725 535.5069 96.38185 535.5069 94.725C535.5069 93.068146 536.85004 91.725 538.5069 91.725C540.16376 91.725 541.5069 93.068146 541.5069 94.725Z" fill-rule="nonzero"/><path fill="#00ff00" clip-path="url(#id_0)" d="M563.6655 44.425C563.6655 46.081856 562.3224 47.425 560.6655 47.425C559.00867 47.425 557.6655 46.081856 557.6655 44.425C557.6655 42.768147 559.00867 41.425 560.6655 41.425C562.3224 41.425 563.6655 42.768147 563.6655 44.425Z" fill-rule="nonzero"/><path fill="#00ff00" clip-path="url(#id_0)" d="M585.82416 31.85C585.82416 33.506855 584.481 34.85 582.82416 34.85C581.1673 34.85 579.82416 33.506855 579.82416 31.85C579.82416 30.193146 581.1673 28.85 582.82416 28.85C584.481 28.85 585.82416 30.193146 585.82416 31.85Z" fill-rule="nonzero"/><path fill="#00ff00" clip-path="url(#id_0)" d="M607.9828 57.0C607.9828 58.656853 606.6396 60.0 604.9828 60.0C603.3259 60.0 601.9828 58.656853 601.9828 57.0C601.9828 55.343147 603.3259 54.0 604.9828 54.0C606.6396 54.0 607.9828 55.343147 607.9828 57.0Z" fill-rule="nonzero"/><path fill="#00ff00" clip-path="url(#id_0)" d="M630.14136 94.725C630.14136 96.38185 628.7982 97.725 627.14136 97.725C625.4845 97.725 624.14136 96.38185 624.14136 94.725C624.14136 93.068146 625.4845 91.725 627.14136 91.725C628.7982 91.725 630.14136 93.068146 630.14136 94.725Z" fill-rule="nonzero"/><path fill="#00ff00" clip-path="url(#id_0)" d="M652.3 44.425C652.3 46.081856 650.95685 47.425 649.3 47.425C647.6431 47.425 646.3 46.081856 646.3 44.425C646.3 42.768147 647.6431 41.425 649.3 41.425C650.95685 41.425 652.3 42.768147 652.3 44.425Z" fill-rule="nonzero"/><path fill="#efefef" d="M106.0736 119.97188Q106.589226 117.51875 107.66735 116.55Q108.7611 115.56563 110.5736 115.56563Q111.432976 115.56563 111.9486 115.78438Q112.464226 115.9875 112.745476 116.33125Q113.026726 116.675 113.151726 117.05Q113.276726 117.425 113.276726 117.94063Q113.3236 118.89375 113.089226 119.94063Q112.589226 122.28438 111.5736 123.3625Q110.557976 124.44063 108.620476 124.44063Q107.526726 124.44063 106.932976 124.09688Q106.339226 123.75313 106.0736 123.08125Q105.85485 122.6125 105.85485 121.8Q105.85485 120.97188 106.0736 119.97188ZM108.432976 119.97188Q108.089226 121.6125 108.245476 122.22188Q108.401726 122.81563 108.9486 122.81563Q109.3236 122.81563 109.6361 122.56563Q109.964226 122.3 110.1986 121.75313Q110.4486 121.20625 110.6986 120.03438Q111.057976 118.33125 110.8861 117.7375Q110.72985 117.14375 110.151726 117.14375Q109.557976 117.14375 109.16735 117.75313Q108.776726 118.34688 108.432976 119.97188ZM115.0111 115.70625L121.97985 115.70625L121.6361 117.31563Q120.557976 118.14375 119.745476 119.09688Q118.7611 120.25313 118.026726 121.675Q117.464226 122.78438 117.0111 124.3L114.6361 124.3Q115.370476 122.19063 116.2611 120.76875Q117.16735 119.34688 118.8236 117.72188L114.5736 117.72188L115.0111 115.70625ZM124.66735 115.56563L125.8861 115.56563L121.839226 124.44063L120.620476 124.44063L124.66735 115.56563ZM131.41736 115.56563L129.55798 124.3L127.1361 124.3L128.35486 118.58125Q127.682976 119.01875 127.0736 119.3Q126.464226 119.56563 125.589226 119.81563L126.0111 117.8625Q127.307976 117.47188 128.08923 116.925Q128.88611 116.37813 129.43298 115.56563L131.41736 115.56563ZM139.13611 124.3L131.96423 124.3Q132.30798 123.2375 133.13611 122.3Q133.96423 121.3625 135.94861 120.09688Q137.16736 119.31563 137.54236 118.90938Q137.93298 118.50313 138.01111 118.14375Q138.08923 117.75313 137.85486 117.47188Q137.62048 117.19063 137.18298 117.19063Q136.72986 117.19063 136.37048 117.4875Q136.02673 117.76875 135.77673 118.50313L133.43298 118.3Q133.77673 117.3 134.27673 116.7375Q134.77673 116.15938 135.51111 115.8625Q136.26111 115.56563 137.46423 115.56563Q138.72986 115.56563 139.35486 115.8625Q139.99548 116.14375 140.27673 116.7375Q140.55798 117.33125 140.40173 118.06563Q140.22986 118.84688 139.62048 119.56563Q139.01111 120.28438 137.60486 121.12813Q136.77673 121.62813 136.49548 121.83125Q136.21423 122.03438 135.82361 122.34688L139.55798 122.34688L139.13611 124.3ZM143.66736 115.56563L144.88611 115.56563L140.83923 124.44063L139.62048 124.44063L143.66736 115.56563ZM150.13611 124.3L142.96423 124.3Q143.30798 123.2375 144.13611 122.3Q144.96423 121.3625 146.94861 120.09688Q148.16736 119.31563 148.54236 118.90938Q148.93298 118.50313 149.01111 118.14375Q149.08923 117.75313 148.85486 117.47188Q148.62048 117.19063 148.18298 117.19063Q147.72986 117.19063 147.37048 117.4875Q147.02673 117.76875 146.77673 118.50313L144.43298 118.3Q144.77673 117.3 145.27673 116.7375Q145.77673 116.15938 146.51111 115.8625Q147.26111 115.56563 148.46423 115.56563Q149.72986 115.56563 150.35486 115.8625Q150.99548 116.14375 151.27673 116.7375Q151.55798 117.33125 151.40173 118.06563Q151.22986 118.84688 150.62048 119.56563Q150.01111 120.28438 148.60486 121.12813Q147.77673 121.62813 147.49548 121.83125Q147.21423 122.03438 146.82361 122.34688L150.55798 122.34688L150.13611 124.3ZM152.07361 119.97188Q152.58923 117.51875 153.66736 116.55Q154.76111 115.56563 156.57361 115.56563Q157.43298 115.56563 157.94861 115.78438Q158.46423 115.9875 158.74548 116.33125Q159.02673 116.675 159.15173 117.05Q159.27673 117.425 159.27673 117.94063Q159.32361 118.89375 159.08923 119.94063Q158.58923 122.28438 157.57361 123.3625Q156.55798 124.44063 154.62048 124.44063Q153.52673 124.44063 152.93298 124.09688Q152.33923 123.75313 152.07361 123.08125Q151.85486 122.6125 151.85486 121.8Q151.85486 120.97188 152.07361 119.97188ZM154.43298 119.97188Q154.08923 121.6125 154.24548 122.22188Q154.40173 122.81563 154.94861 122.81563Q155.32361 122.81563 155.63611 122.56563Q155.96423 122.3 156.19861 121.75313Q156.44861 121.20625 156.69861 120.03438Q157.05798 118.33125 156.88611 117.7375Q156.72986 117.14375 156.15173 117.14375Q155.55798 117.14375 155.16736 117.75313Q154.77673 118.34688 154.43298 119.97188ZM166.13611 124.3L158.96423 124.3Q159.30798 123.2375 160.13611 122.3Q160.96423 121.3625 162.94861 120.09688Q164.16736 119.31563 164.54236 118.90938Q164.93298 118.50313 165.01111 118.14375Q165.08923 117.75313 164.85486 117.47188Q164.62048 117.19063 164.18298 117.19063Q163.72986 117.19063 163.37048 117.4875Q163.02673 117.76875 162.77673 118.50313L160.43298 118.3Q160.77673 117.3 161.27673 116.7375Q161.77673 116.15938 162.51111 115.8625Q163.26111 115.56563 164.46423 115.56563Q165.72986 115.56563 166.35486 115.8625Q166.99548 116.14375 167.27673 116.7375Q167.55798 117.33125 167.40173 118.06563Q167.22986 118.84688 166.62048 119.56563Q166.01111 120.28438 164.60486 121.12813Q163.77673 121.62813 163.49548 121.83125Q163.21423 122.03438 162.82361 122.34688L166.55798 122.34688L166.13611 124.3ZM169.93298 115.70625L175.60486 115.70625L175.19861 117.6125L171.35486 117.6125L170.87048 118.90938Q171.32361 118.72188 171.72986 118.62813Q172.13611 118.53438 172.51111 118.53438Q173.80798 118.53438 174.43298 119.31563Q175.07361 120.08125 174.82361 121.26875Q174.65173 122.09688 174.07361 122.87813Q173.49548 123.64375 172.65173 124.05Q171.80798 124.44063 170.63611 124.44063Q169.77673 124.44063 169.19861 124.28438Q168.63611 124.12813 168.27673 123.81563Q167.91736 123.4875 167.72986 123.08125Q167.55798 122.675 167.51111 122.06563L169.99548 121.81563Q169.94861 122.39375 170.21423 122.69063Q170.47986 122.9875 170.91736 122.9875Q171.41736 122.9875 171.82361 122.6125Q172.22986 122.2375 172.38611 121.4875Q172.55798 120.72188 172.29236 120.3625Q172.04236 120.00313 171.49548 120.00313Q171.15173 120.00313 170.79236 120.175Q170.52673 120.3 170.16736 120.6125L168.19861 120.33125L169.93298 115.70625Z" fill-rule="nonzero"/><path fill="#efefef" d="M267.52768 115.56563L265.6683 124.3L263.24643 124.3L264.46518 118.58125Q263.7933 119.01875 263.18393 119.3Q262.57455 119.56563 261.69955 119.81563L262.12143 117.8625Q263.4183 117.47188 264.19955 116.925Q264.99643 116.37813 265.5433 115.56563L267.52768 115.56563ZM272.69955 122.69063L268.3558 122.69063L268.76205 120.7375L274.21518 115.56563L276.2933 115.56563L275.1683 120.84688L276.24643 120.84688L275.8558 122.69063L274.77768 122.69063L274.43393 124.3L272.3558 124.3L272.69955 122.69063ZM273.09018 120.84688L273.6683 118.14375L270.7933 120.84688L273.09018 120.84688ZM279.77768 115.56563L280.99643 115.56563L276.94955 124.44063L275.7308 124.44063L279.77768 115.56563ZM286.52768 115.56563L284.6683 124.3L282.24643 124.3L283.46518 118.58125Q282.7933 119.01875 282.18393 119.3Q281.57455 119.56563 280.69955 119.81563L281.12143 117.8625Q282.4183 117.47188 283.19955 116.925Q283.99643 116.37813 284.5433 115.56563L286.52768 115.56563ZM294.24643 124.3L287.07455 124.3Q287.4183 123.2375 288.24643 122.3Q289.07455 121.3625 291.05893 120.09688Q292.27768 119.31563 292.65268 118.90938Q293.0433 118.50313 293.12143 118.14375Q293.19955 117.75313 292.96518 117.47188Q292.7308 117.19063 292.2933 117.19063Q291.84018 117.19063 291.4808 117.4875Q291.13705 117.76875 290.88705 118.50313L288.5433 118.3Q288.88705 117.3 289.38705 116.7375Q289.88705 116.15938 290.62143 115.8625Q291.37143 115.56563 292.57455 115.56563Q293.84018 115.56563 294.46518 115.8625Q295.1058 116.14375 295.38705 116.7375Q295.6683 117.33125 295.51205 118.06563Q295.34018 118.84688 294.7308 119.56563Q294.12143 120.28438 292.71518 121.12813Q291.88705 121.62813 291.6058 121.83125Q291.32455 122.03438 290.93393 122.34688L294.6683 122.34688L294.24643 124.3ZM298.77768 115.56563L299.99643 115.56563L295.94955 124.44063L294.7308 124.44063L298.77768 115.56563ZM305.24643 124.3L298.07455 124.3Q298.4183 123.2375 299.24643 122.3Q300.07455 121.3625 302.05893 120.09688Q303.27768 119.31563 303.65268 118.90938Q304.0433 118.50313 304.12143 118.14375Q304.19955 117.75313 303.96518 117.47188Q303.7308 117.19063 303.2933 117.19063Q302.84018 117.19063 302.4808 117.4875Q302.13705 117.76875 301.88705 118.50313L299.5433 118.3Q299.88705 117.3 300.38705 116.7375Q300.88705 116.15938 301.62143 115.8625Q302.37143 115.56563 303.57455 115.56563Q304.84018 115.56563 305.46518 115.8625Q306.1058 116.14375 306.38705 116.7375Q306.6683 117.33125 306.51205 118.06563Q306.34018 118.84688 305.7308 119.56563Q305.12143 120.28438 303.71518 121.12813Q302.88705 121.62813 302.6058 121.83125Q302.32455 122.03438 301.93393 122.34688L305.6683 122.34688L305.24643 124.3ZM307.18393 119.97188Q307.69955 117.51875 308.77768 116.55Q309.87143 115.56563 311.68393 115.56563Q312.5433 115.56563 313.05893 115.78438Q313.57455 115.9875 313.8558 116.33125Q314.13705 116.675 314.26205 117.05Q314.38705 117.425 314.38705 117.94063Q314.43393 118.89375 314.19955 119.94063Q313.69955 122.28438 312.68393 123.3625Q311.6683 124.44063 309.7308 124.44063Q308.63705 124.44063 308.0433 124.09688Q307.44955 123.75313 307.18393 123.08125Q306.96518 122.6125 306.96518 121.8Q306.96518 120.97188 307.18393 119.97188ZM309.5433 119.97188Q309.19955 121.6125 309.3558 122.22188Q309.51205 122.81563 310.05893 122.81563Q310.43393 122.81563 310.74643 122.56563Q311.07455 122.3 311.30893 121.75313Q311.55893 121.20625 311.80893 120.03438Q312.1683 118.33125 311.99643 117.7375Q311.84018 117.14375 311.26205 117.14375Q310.6683 117.14375 310.27768 117.75313Q309.88705 118.34688 309.5433 119.97188ZM321.24643 124.3L314.07455 124.3Q314.4183 123.2375 315.24643 122.3Q316.07455 121.3625 318.05893 120.09688Q319.27768 119.31563 319.65268 118.90938Q320.0433 118.50313 320.12143 118.14375Q320.19955 117.75313 319.96518 117.47188Q319.7308 117.19063 319.2933 117.19063Q318.84018 117.19063 318.4808 117.4875Q318.13705 117.76875 317.88705 118.50313L315.5433 118.3Q315.88705 117.3 316.38705 116.7375Q316.88705 116.15938 317.62143 115.8625Q318.37143 115.56563 319.57455 115.56563Q320.84018 115.56563 321.46518 115.8625Q322.1058 116.14375 322.38705 116.7375Q322.6683 117.33125 322.51205 118.06563Q322.34018 118.84688 321.7308 119.56563Q321.12143 120.28438 319.71518 121.12813Q318.88705 121.62813 318.6058 121.83125Q318.32455 122.03438 317.93393 122.34688L321.6683 122.34688L321.24643 124.3ZM325.0433 115.70625L330.71518 115.70625L330.30893 117.6125L326.46518 117.6125L325.9808 118.90938Q326.43393 118.72188 326.84018 118.62813Q327.24643 118.53438 327.62143 118.53438Q328.9183 118.53438 329.5433 119.31563Q330.18393 120.08125 329.93393 121.26875Q329.76205 122.09688 329.18393 122.87813Q328.6058 123.64375 327.76205 124.05Q326.9183 124.44063 325.74643 124.44063Q324.88705 124.44063 324.30893 124.28438Q323.74643 124.12813 323.38705 123.81563Q323.02768 123.4875 322.84018 123.08125Q322.6683 122.675 322.62143 122.06563L325.1058 121.81563Q325.05893 122.39375 325.32455 122.69063Q325.59018 122.9875 326.02768 122.9875Q326.52768 122.9875 326.93393 122.6125Q327.34018 122.2375 327.49643 121.4875Q327.6683 120.72188 327.40268 120.3625Q327.15268 120.00313 326.6058 120.00313Q326.26205 120.00313 325.90268 120.175Q325.63705 120.3 325.27768 120.6125L323.30893 120.33125L325.0433 115.70625Z" fill-rule="nonzero"/><path fill="#efefef" d="M422.35678 124.3L415.1849 124.3Q415.52866 123.2375 416.35678 122.3Q417.1849 121.3625 419.16928 120.09688Q420.38803 119.31563 420.76303 118.90938Q421.15366 118.50313 421.23178 118.14375Q421.3099 117.75313 421.07553 117.47188Q420.84116 117.19063 420.40366 117.19063Q419.95053 117.19063 419.59116 117.4875Q419.2474 117.76875 418.9974 118.50313L416.65366 118.3Q416.9974 117.3 417.4974 116.7375Q417.9974 116.15938 418.73178 115.8625Q419.48178 115.56563 420.6849 115.56563Q421.95053 115.56563 422.57553 115.8625Q423.21616 116.14375 423.4974 116.7375Q423.77866 117.33125 423.6224 118.06563Q423.45053 118.84688 422.84116 119.56563Q422.23178 120.28438 420.82553 121.12813Q419.9974 121.62813 419.71616 121.83125Q419.4349 122.03438 419.04428 122.34688L422.77866 122.34688L422.35678 124.3ZM430.63803 115.56563L428.77866 124.3L426.35678 124.3L427.57553 118.58125Q426.90366 119.01875 426.29428 119.3Q425.6849 119.56563 424.8099 119.81563L425.23178 117.8625Q426.52866 117.47188 427.3099 116.925Q428.10678 116.37813 428.65366 115.56563L430.63803 115.56563ZM434.88803 115.56563L436.10678 115.56563L432.0599 124.44063L430.84116 124.44063L434.88803 115.56563ZM441.63803 115.56563L439.77866 124.3L437.35678 124.3L438.57553 118.58125Q437.90366 119.01875 437.29428 119.3Q436.6849 119.56563 435.8099 119.81563L436.23178 117.8625Q437.52866 117.47188 438.3099 116.925Q439.10678 116.37813 439.65366 115.56563L441.63803 115.56563ZM449.35678 124.3L442.1849 124.3Q442.52866 123.2375 443.35678 122.3Q444.1849 121.3625 446.16928 120.09688Q447.38803 119.31563 447.76303 118.90938Q448.15366 118.50313 448.23178 118.14375Q448.3099 117.75313 448.07553 117.47188Q447.84116 117.19063 447.40366 117.19063Q446.95053 117.19063 446.59116 117.4875Q446.2474 117.76875 445.9974 118.50313L443.65366 118.3Q443.9974 117.3 444.4974 116.7375Q444.9974 116.15938 445.73178 115.8625Q446.48178 115.56563 447.6849 115.56563Q448.95053 115.56563 449.57553 115.8625Q450.21616 116.14375 450.4974 116.7375Q450.77866 117.33125 450.6224 118.06563Q450.45053 118.84688 449.84116 119.56563Q449.23178 120.28438 447.82553 121.12813Q446.9974 121.62813 446.71616 121.83125Q446.4349 122.03438 446.04428 122.34688L449.77866 122.34688L449.35678 124.3ZM453.88803 115.56563L455.10678 115.56563L451.0599 124.44063L449.84116 124.44063L453.88803 115.56563ZM460.35678 124.3L453.1849 124.3Q453.52866 123.2375 454.35678 122.3Q455.1849 121.3625 457.16928 120.09688Q458.38803 119.31563 458.76303 118.90938Q459.15366 118.50313 459.23178 118.14375Q459.3099 117.75313 459.07553 117.47188Q458.84116 117.19063 458.40366 117.19063Q457.95053 117.19063 457.59116 117.4875Q457.2474 117.76875 456.9974 118.50313L454.65366 118.3Q454.9974 117.3 455.4974 116.7375Q455.9974 116.15938 456.73178 115.8625Q457.48178 115.56563 458.6849 115.56563Q459.95053 115.56563 460.57553 115.8625Q461.21616 116.14375 461.4974 116.7375Q461.77866 117.33125 461.6224 118.06563Q461.45053 118.84688 460.84116 119.56563Q460.23178 120.28438 458.82553 121.12813Q457.9974 121.62813 457.71616 121.83125Q457.4349 122.03438 457.04428 122.34688L460.77866 122.34688L460.35678 124.3ZM462.29428 119.97188Q462.8099 117.51875 463.88803 116.55Q464.98178 115.56563 466.79428 115.56563Q467.65366 115.56563 468.16928 115.78438Q468.6849 115.9875 468.96616 116.33125Q469.2474 116.675 469.3724 117.05Q469.4974 117.425 469.4974 117.94063Q469.54428 118.89375 469.3099 119.94063Q468.8099 122.28438 467.79428 123.3625Q466.77866 124.44063 464.84116 124.44063Q463.7474 124.44063 463.15366 124.09688Q462.5599 123.75313 462.29428 123.08125Q462.07553 122.6125 462.07553 121.8Q462.07553 120.97188 462.29428 119.97188ZM464.65366 119.97188Q464.3099 121.6125 464.46616 122.22188Q464.6224 122.81563 465.16928 122.81563Q465.54428 122.81563 465.85678 122.56563Q466.1849 122.3 466.41928 121.75313Q466.66928 121.20625 466.91928 120.03438Q467.27866 118.33125 467.10678 117.7375Q466.95053 117.14375 466.3724 117.14375Q465.77866 117.14375 465.38803 117.75313Q464.9974 118.34688 464.65366 119.97188ZM476.35678 124.3L469.1849 124.3Q469.52866 123.2375 470.35678 122.3Q471.1849 121.3625 473.16928 120.09688Q474.38803 119.31563 474.76303 118.90938Q475.15366 118.50313 475.23178 118.14375Q475.3099 117.75313 475.07553 117.47188Q474.84116 117.19063 474.40366 117.19063Q473.95053 117.19063 473.59116 117.4875Q473.2474 117.76875 472.9974 118.50313L470.65366 118.3Q470.9974 117.3 471.4974 116.7375Q471.9974 116.15938 472.73178 115.8625Q473.48178 115.56563 474.6849 115.56563Q475.95053 115.56563 476.57553 115.8625Q477.21616 116.14375 477.4974 116.7375Q477.77866 117.33125 477.6224 118.06563Q477.45053 118.84688 476.84116 119.56563Q476.23178 120.28438 474.82553 121.12813Q473.9974 121.62813 473.71616 121.83125Q473.4349 122.03438 473.04428 122.34688L476.77866 122.34688L476.35678 124.3ZM480.15366 115.70625L485.82553 115.70625L485.41928 117.6125L481.57553 117.6125L481.09116 118.90938Q481.54428 118.72188 481.95053 118.62813Q482.35678 118.53438 482.73178 118.53438Q484.02866 118.53438 484.65366 119.31563Q485.29428 120.08125 485.04428 121.26875Q484.8724 122.09688 484.29428 122.87813Q483.71616 123.64375 482.8724 124.05Q482.02866 124.44063 480.85678 124.44063Q479.9974 124.44063 479.41928 124.28438Q478.85678 124.12813 478.4974 123.81563Q478.13803 123.4875 477.95053 123.08125Q477.77866 122.675 477.73178 122.06563L480.21616 121.81563Q480.16928 122.39375 480.4349 122.69063Q480.70053 122.9875 481.13803 122.9875Q481.63803 122.9875 482.04428 122.6125Q482.45053 122.2375 482.60678 121.4875Q482.77866 120.72188 482.51303 120.3625Q482.26303 120.00313 481.71616 120.00313Q481.3724 120.00313 481.01303 120.175Q480.7474 120.3 480.38803 120.6125L478.41928 120.33125L480.15366 115.70625Z" fill-rule="nonzero"/><path fill="#efefef" d="M577.46716 124.3L570.2953 124.3Q570.63904 123.2375 571.46716 122.3Q572.2953 121.3625 574.27966 120.09688Q575.4984 119.31563 575.8734 118.90938Q576.26404 118.50313 576.34216 118.14375Q576.4203 117.75313 576.1859 117.47188Q575.95154 117.19063 575.51404 117.19063Q575.0609 117.19063 574.70154 117.4875Q574.3578 117.76875 574.1078 118.50313L571.76404 118.3Q572.1078 117.3 572.6078 116.7375Q573.1078 116.15938 573.84216 115.8625Q574.59216 115.56563 575.7953 115.56563Q577.0609 115.56563 577.6859 115.8625Q578.32654 116.14375 578.6078 116.7375Q578.88904 117.33125 578.7328 118.06563Q578.5609 118.84688 577.95154 119.56563Q577.34216 120.28438 575.9359 121.12813Q575.1078 121.62813 574.82654 121.83125Q574.5453 122.03438 574.15466 122.34688L577.88904 122.34688L577.46716 124.3ZM580.88904 119.675Q580.38904 119.37813 580.21716 119.01875Q579.96716 118.50313 580.1078 117.84688Q580.32654 116.76875 581.4984 116.09688Q582.40466 115.56563 583.70154 115.56563Q585.4203 115.56563 586.1078 116.22188Q586.7953 116.87813 586.57654 117.87813Q586.45154 118.45625 586.02966 118.95625Q585.70154 119.33125 585.09216 119.675Q585.71716 120.01875 585.9359 120.56563Q586.1703 121.1125 586.02966 121.78438Q585.90466 122.425 585.4828 122.9875Q585.0609 123.55 584.5609 123.8625Q584.07654 124.15938 583.40466 124.3Q582.7328 124.44063 581.9984 124.44063Q580.63904 124.44063 579.9828 124.12813Q579.34216 123.8 579.09216 123.175Q578.8578 122.55 579.01404 121.76875Q579.1859 121.01875 579.63904 120.50313Q580.1078 119.97188 580.88904 119.675ZM582.32654 117.9875Q582.2328 118.44063 582.45154 118.72188Q582.6703 118.9875 583.1234 118.9875Q583.5453 118.9875 583.8578 118.72188Q584.1859 118.44063 584.26404 118.01875Q584.3734 117.56563 584.15466 117.3Q583.9359 117.01875 583.51404 117.01875Q583.07654 117.01875 582.7484 117.3Q582.4203 117.56563 582.32654 117.9875ZM581.40466 121.69063Q581.2953 122.25313 581.5609 122.62813Q581.82654 122.9875 582.27966 122.9875Q582.70154 122.9875 583.1078 122.62813Q583.52966 122.25313 583.63904 121.69063Q583.76404 121.1125 583.4984 120.75313Q583.2484 120.39375 582.7953 120.39375Q582.34216 120.39375 581.9359 120.75313Q581.5453 121.09688 581.40466 121.69063ZM589.9984 115.56563L591.21716 115.56563L587.1703 124.44063L585.95154 124.44063L589.9984 115.56563ZM596.7484 115.56563L594.88904 124.3L592.46716 124.3L593.6859 118.58125Q593.01404 119.01875 592.40466 119.3Q591.7953 119.56563 590.9203 119.81563L591.34216 117.8625Q592.63904 117.47188 593.4203 116.925Q594.21716 116.37813 594.76404 115.56563L596.7484 115.56563ZM604.46716 124.3L597.2953 124.3Q597.63904 123.2375 598.46716 122.3Q599.2953 121.3625 601.27966 120.09688Q602.4984 119.31563 602.8734 118.90938Q603.26404 118.50313 603.34216 118.14375Q603.4203 117.75313 603.1859 117.47188Q602.95154 117.19063 602.51404 117.19063Q602.0609 117.19063 601.70154 117.4875Q601.3578 117.76875 601.1078 118.50313L598.76404 118.3Q599.1078 117.3 599.6078 116.7375Q600.1078 116.15938 600.84216 115.8625Q601.59216 115.56563 602.7953 115.56563Q604.0609 115.56563 604.6859 115.8625Q605.32654 116.14375 605.6078 116.7375Q605.88904 117.33125 605.7328 118.06563Q605.5609 118.84688 604.95154 119.56563Q604.34216 120.28438 602.9359 121.12813Q602.1078 121.62813 601.82654 121.83125Q601.5453 122.03438 601.15466 122.34688L604.88904 122.34688L604.46716 124.3ZM608.9984 115.56563L610.21716 115.56563L606.1703 124.44063L604.95154 124.44063L608.9984 115.56563ZM615.46716 124.3L608.2953 124.3Q608.63904 123.2375 609.46716 122.3Q610.2953 121.3625 612.27966 120.09688Q613.4984 119.31563 613.8734 118.90938Q614.26404 118.50313 614.34216 118.14375Q614.4203 117.75313 614.1859 117.47188Q613.95154 117.19063 613.51404 117.19063Q613.0609 117.19063 612.70154 117.4875Q612.3578 117.76875 612.1078 118.50313L609.76404 118.3Q610.1078 117.3 610.6078 116.7375Q611.1078 116.15938 611.84216 115.8625Q612.59216 115.56563 613.7953 115.56563Q615.0609 115.56563 615.6859 115.8625Q616.32654 116.14375 616.6078 116.7375Q616.88904 117.33125 616.7328 118.06563Q616.5609 118.84688 615.95154 119.56563Q615.34216 120.28438 613.9359 121.12813Q613.1078 121.62813 612.82654 121.83125Q612.5453 122.03438 612.15466 122.34688L615.88904 122.34688L615.46716 124.3ZM617.40466 119.97188Q617.9203 117.51875 618.9984 116.55Q620.09216 115.56563 621.90466 115.56563Q622.76404 115.56563 623.27966 115.78438Q623.7953 115.9875 624.07654 116.33125Q624.3578 116.675 624.4828 117.05Q624.6078 117.425 624.6078 117.94063Q624.65466 118.89375 624.4203 119.94063Q623.9203 122.28438 622.90466 123.3625Q621.88904 124.44063 619.95154 124.44063Q618.8578 124.44063 618.26404 124.09688Q617.6703 123.75313 617.40466 123.08125Q617.1859 122.6125 617.1859 121.8Q617.1859 120.97188 617.40466 119.97188ZM619.76404 119.97188Q619.4203 121.6125 619.57654 122.22188Q619.7328 122.81563 620.27966 122.81563Q620.65466 122.81563 620.96716 122.56563Q621.2953 122.3 621.52966 121.75313Q621.77966 121.20625 622.02966 120.03438Q622.38904 118.33125 622.21716 117.7375Q622.0609 117.14375 621.4828 117.14375Q620.88904 117.14375 620.4984 117.75313Q620.1078 118.34688 619.76404 119.97188ZM631.46716 124.3L624.2953 124.3Q624.63904 123.2375 625.46716 122.3Q626.2953 121.3625 628.27966 120.09688Q629.4984 119.31563 629.8734 118.90938Q630.26404 118.50313 630.34216 118.14375Q630.4203 117.75313 630.1859 117.47188Q629.95154 117.19063 629.51404 117.19063Q629.0609 117.19063 628.70154 117.4875Q628.3578 117.76875 628.1078 118.50313L625.76404 118.3Q626.1078 117.3 626.6078 116.7375Q627.1078 116.15938 627.84216 115.8625Q628.59216 115.56563 629.7953 115.56563Q631.0609 115.56563 631.6859 115.8625Q632.32654 116.14375 632.6078 116.7375Q632.88904 117.33125 632.7328 118.06563Q632.5609 118.84688 631.95154 119.56563Q631.34216 120.28438 629.9359 121.12813Q629.1078 121.62813 628.82654 121.83125Q628.5453 122.03438 628.15466 122.34688L631.88904 122.34688L631.46716 124.3ZM635.26404 115.70625L640.9359 115.70625L640.52966 117.6125L636.6859 117.6125L636.20154 118.90938Q636.65466 118.72188 637.0609 118.62813Q637.46716 118.53438 637.84216 118.53438Q639.13904 118.53438 639.76404 119.31563Q640.40466 120.08125 640.15466 121.26875Q639.9828 122.09688 639.40466 122.87813Q638.82654 123.64375 637.9828 124.05Q637.13904 124.44063 635.96716 124.44063Q635.1078 124.44063 634.52966 124.28438Q633.96716 124.12813 633.6078 123.81563Q633.2484 123.4875 633.0609 123.08125Q632.88904 122.675 632.84216 122.06563L635.32654 121.81563Q635.27966 122.39375 635.5453 122.69063Q635.8109 122.9875 636.2484 122.9875Q636.7484 122.9875 637.15466 122.6125Q637.5609 122.2375 637.71716 121.4875Q637.88904 120.72188 637.6234 120.3625Q637.3734 120.00313 636.82654 120.00313Q636.4828 120.00313 636.1234 120.175Q635.8578 120.3 635.4984 120.6125L633.52966 120.33125L635.26404 115.70625Z" fill-rule="nonzero"/></svg>