<svg width="44" height="61" viewBox="0 0 44 61" fill="none" xmlns="http://www.w3.org/2000/svg">
<path d="M42.0162 56.1547H40.0597V45.7198C40.0597 38.9042 36.1601 32.9931 30.4815 30.0677C36.2183 27.1122 40.0597 21.1773 40.0597 14.4155V3.98067H42.0162C43.0963 3.98067 43.9728 3.10492 43.9728 2.0241C43.9727 0.9434 43.0963 0.0676575 42.0162 0.0676575C34.1691 0.0676575 10.8117 0.0676575 2.88579 0.0676575C1.80567 0.0676575 0.92923 0.9434 0.92923 2.02422C0.92923 3.10504 1.80567 3.98078 2.88579 3.98078H4.84235V14.4156C4.84235 21.1764 8.68271 27.1118 14.4206 30.0678C8.74177 32.9932 4.84235 38.9043 4.84235 45.7199V56.1548H2.88579C1.80567 56.1548 0.92923 57.0305 0.92923 58.1113C0.92923 59.1921 1.80567 60.0679 2.88579 60.0679C15.9547 60.0679 28.9598 60.0679 42.0162 60.0679C43.0963 60.0679 43.9728 59.1921 43.9728 58.1113C43.9727 57.0304 43.0963 56.1547 42.0162 56.1547ZM8.81513 15.5963C8.71939 14.482 8.75525 14.9569 8.75525 3.98067H36.1467C36.1467 14.9569 36.1825 14.482 36.0868 15.5963H8.81513ZM36.1467 53.9342C25.3532 44.9395 25.7466 45.1015 24.4075 44.6283V42.4589C24.4075 41.3781 23.5311 40.5024 22.4509 40.5024C21.3708 40.5024 20.4944 41.3781 20.4944 42.4589V44.6282C19.1693 45.0965 19.5841 44.9098 8.75525 53.9341V45.7198C8.75525 38.834 13.8681 33.1349 20.4944 32.1804V34.6328C20.4944 35.7136 21.3708 36.5894 22.4509 36.5894C23.5311 36.5894 24.4075 35.7136 24.4075 34.6328V32.1804C31.0338 33.1349 36.1467 38.834 36.1467 45.7198V53.9342Z" fill="white"/>
</svg>
