<svg width="60" height="60" viewBox="0 0 60 60" fill="none" xmlns="http://www.w3.org/2000/svg">
<path d="M39.375 5.625H20.625C11.25 5.625 3.75 13.125 3.75 22.5V54.375C3.75 55.125 4.125 55.6875 4.875 56.0625C5.0625 56.25 5.4375 56.25 5.625 56.25C6 56.25 6.5625 56.0625 6.9375 55.875C13.5 50.0625 21.9375 46.875 30.5625 46.875H39.375C48.75 46.875 56.25 39.375 56.25 30V22.5C56.25 13.125 48.75 5.625 39.375 5.625ZM26.25 31.875H18.75C17.625 31.875 16.875 31.125 16.875 30C16.875 28.875 17.625 28.125 18.75 28.125H26.25C27.375 28.125 28.125 28.875 28.125 30C28.125 31.125 27.375 31.875 26.25 31.875ZM35.625 24.375H18.75C17.625 24.375 16.875 23.625 16.875 22.5C16.875 21.375 17.625 20.625 18.75 20.625H35.625C36.75 20.625 37.5 21.375 37.5 22.5C37.5 23.625 36.75 24.375 35.625 24.375Z" fill="white"/>
</svg>
