<svg width="39" height="45" viewBox="0 0 39 45" fill="none" xmlns="http://www.w3.org/2000/svg">
<path fill-rule="evenodd" clip-rule="evenodd" d="M21.1362 1.73835C21.1362 0.778275 20.3477 0 19.375 0C18.4023 0 17.6138 0.778275 17.6138 1.73835V2.42195C16.5625 2.5432 15.522 2.7655 14.5093 3.088C9.23308 4.76795 5.10997 8.98197 3.64985 14.2753L3.54457 14.6569C2.6722 17.8195 2.48147 21.126 2.98277 24.363C1.18163 25.6107 0 27.6787 0 30.0212C0 33.3077 2.3458 36.1395 5.60948 36.7925L6.47277 36.9652C7.91257 37.2535 9.3598 37.4927 10.812 37.6835C10.8255 37.742 10.8395 37.8005 10.8541 37.859L11.0466 38.628C11.8079 41.669 14.2263 44.0357 17.314 44.7612C18.669 45.0795 20.081 45.0795 21.436 44.7612C24.5238 44.0357 26.9422 41.669 27.7035 38.628L27.896 37.859C27.9105 37.8005 27.9245 37.742 27.938 37.6835C29.3903 37.4927 30.8375 37.2535 32.2773 36.9652L33.1405 36.7925C36.4043 36.1395 38.75 33.3077 38.75 30.0212C38.75 27.6792 37.5688 25.6117 35.7685 24.3637C36.2765 21.1557 36.1062 17.8775 35.267 14.7355L35.1205 14.1867C33.7253 8.96305 29.7445 4.79205 24.5448 3.10515C23.434 2.74485 22.2902 2.50795 21.1362 2.39345V1.73835ZM18.13 41.379C16.418 40.9767 15.0582 39.7115 14.543 38.0655C17.7597 38.3025 20.9903 38.3025 24.207 38.0655C23.6918 39.7115 22.332 40.9767 20.62 41.379C19.8015 41.5715 18.9485 41.5715 18.13 41.379Z" fill="white"/>
</svg>
