<svg width="64" height="64" viewBox="0 0 64 64" fill="none" xmlns="http://www.w3.org/2000/svg">
<g clip-path="url(#clip0_73_53)">
<path d="M32 -0.00378418C29.1713 -0.00378418 26.4617 0.637219 24.6765 2.66913C22.8913 4.70105 22.834 6.86747 22.7307 8.18559C22.6274 9.50372 22.5414 10.3242 22.3421 10.8325C22.1429 11.3407 21.9785 11.729 20.7319 12.45C19.4853 13.1709 19.0678 13.1189 18.5288 13.0377C17.9897 12.9564 17.2377 12.6211 16.0465 12.0516C14.8552 11.4822 12.9531 10.4485 10.3038 10.9812C7.65449 11.514 5.74542 13.544 4.33106 15.9979C2.9167 18.4518 2.11638 21.123 2.98045 23.6877C3.84451 26.2523 5.68898 27.3857 6.77691 28.1343C7.86483 28.883 8.53088 29.3676 8.87065 29.7945C9.21043 30.2215 9.46419 30.5581 9.46419 32C9.46419 33.4419 9.21043 33.7784 8.87065 34.2054C8.53088 34.6324 7.86483 35.1169 6.77691 35.8656C5.68898 36.6143 3.84451 37.7476 2.98045 40.3123C2.11638 42.8769 2.9167 45.5481 4.33106 48.002C5.74542 50.456 7.65449 52.486 10.3038 53.0187C12.9531 53.5515 14.8552 52.5177 16.0465 51.9483C17.2377 51.3789 17.9897 51.0435 18.5288 50.9623C19.0678 50.881 19.4853 50.829 20.7319 51.55C21.9785 52.2709 22.1429 52.6592 22.3421 53.1675C22.5414 53.6757 22.6274 54.4962 22.7307 55.8143C22.834 57.1325 22.8913 59.2989 24.6765 61.3308C26.4617 63.3627 29.1713 64.0037 32 64.0037C34.8287 64.0037 37.5383 63.3627 39.3236 61.3308C41.1088 59.2989 41.1661 57.1325 41.2694 55.8143C41.3727 54.4962 41.4587 53.6757 41.6579 53.1675C41.8572 52.6592 42.0216 52.2709 43.2682 51.55C44.5147 50.829 44.9322 50.881 45.4713 50.9623C46.0103 51.0435 46.7623 51.3789 47.9536 51.9483C49.1448 52.5177 51.047 53.5515 53.6963 53.0187C56.3456 52.486 58.2546 50.456 59.669 48.002C61.0833 45.5481 61.8837 42.8769 61.0196 40.3123C60.1555 37.7476 58.3111 36.6143 57.2232 35.8656C56.1352 35.1169 55.4692 34.6324 55.1294 34.2054C54.7896 33.7784 54.5359 33.4419 54.5359 32C54.5359 30.5581 54.7896 30.2215 55.1294 29.7945C55.4692 29.3676 56.1352 28.883 57.2232 28.1343C58.3111 27.3857 60.1555 26.2523 61.0196 23.6877C61.8837 21.123 61.0833 18.4518 59.669 15.9979C58.2546 13.544 56.3456 11.514 53.6963 10.9812C51.047 10.4485 49.1448 11.4822 47.9536 12.0516C46.7623 12.6211 46.0103 12.9564 45.4713 13.0377C44.9322 13.1189 44.5147 13.1709 43.2682 12.45C42.0216 11.729 41.8572 11.3407 41.6579 10.8325C41.4587 10.3242 41.3727 9.50372 41.2694 8.18559C41.1661 6.86747 41.1088 4.70105 39.3236 2.66913C37.5383 0.637219 34.8287 -0.00378418 32 -0.00378418ZM32.0025 18.1312C39.7037 18.1312 45.8688 24.2951 45.8688 32C45.8688 39.7049 39.7037 45.8687 32.0025 45.8687C24.3014 45.8687 18.1363 39.7049 18.1363 32C18.1363 24.2951 24.3014 18.1312 32.0025 18.1312Z" fill="white"/>
<path d="M32.0001 23.4678C27.3263 23.4678 23.4667 27.3297 23.4667 32C23.4667 36.6703 27.3263 40.5322 32.0001 40.5322C36.6739 40.5322 40.5333 36.6703 40.5333 32C40.5333 27.3297 36.6739 23.4678 32.0001 23.4678Z" fill="white"/>
</g>
<defs>
<clipPath id="clip0_73_53">
<rect width="64" height="64" fill="white"/>
</clipPath>
</defs>
</svg>
