<svg width="29" height="27" viewBox="0 0 29 27" fill="none" xmlns="http://www.w3.org/2000/svg">
<path d="M19.9392 0H14.9392C12.1392 0 9.93921 2.2 9.93921 5V15C9.93921 15.3 10.1392 15.7 10.4392 15.9C10.5392 16 10.7392 16 10.9392 16C11.1392 16 11.2392 16 11.3392 15.9L17.1392 13H19.9392C22.7392 13 24.9392 10.8 24.9392 8V5C24.9392 2.2 22.7392 0 19.9392 0ZM15.9392 9H14.9392C14.3392 9 13.9392 8.6 13.9392 8C13.9392 7.4 14.3392 7 14.9392 7H15.9392C16.5392 7 16.9392 7.4 16.9392 8C16.9392 8.6 16.5392 9 15.9392 9ZM17.9392 6H14.9392C14.3392 6 13.9392 5.6 13.9392 5C13.9392 4.4 14.3392 4 14.9392 4H17.9392C18.5392 4 18.9392 4.4 18.9392 5C18.9392 5.6 18.5392 6 17.9392 6Z" fill="white"/>
<path d="M25.0392 22.7C24.6392 22.6 24.3392 22.3 24.2392 21.9C24.6392 21.4 24.9392 20.7 24.9392 20V18C24.9392 16.3 23.6392 15 21.9392 15C20.2392 15 18.9392 16.3 18.9392 18V20C18.9392 20.7 19.2392 21.4 19.6392 21.9C19.5392 22.3 19.2392 22.6 18.8392 22.7C17.3392 23.1 16.2392 24.3 16.0392 25.8C15.9392 26.1 16.0392 26.4 16.2392 26.6C16.4392 26.8 16.7392 27 17.0392 27H27.0392C27.3392 27 27.6392 26.9 27.8392 26.6C28.0392 26.4 28.1392 26.1 28.0392 25.8C27.6392 24.3 26.4392 23.1 25.0392 22.7Z" fill="white"/>
<path d="M9.03923 22.7C8.63923 22.6 8.33923 22.3 8.23923 21.9C8.63923 21.4 8.93923 20.7 8.93923 20V18C8.93923 16.3 7.63923 15 5.93923 15C4.23923 15 2.93923 16.3 2.93923 18V20C2.93923 20.7 3.23923 21.4 3.63923 21.9C3.53923 22.3 3.23923 22.6 2.83923 22.7C1.33923 23.1 0.23923 24.3 0.0392305 25.8C-0.0607695 26.1 0.0392305 26.4 0.239231 26.6C0.339231 26.9 0.639231 27 0.939231 27H10.9392C11.2392 27 11.5392 26.9 11.7392 26.6C11.9392 26.4 12.0392 26.1 11.9392 25.8C11.6392 24.3 10.4392 23.1 9.03923 22.7Z" fill="white"/>
</svg>
