<?xml version="1.0" encoding="UTF-8"?>
<svg xmlns="http://www.w3.org/2000/svg" id="Layer_1" data-name="Layer 1" viewBox="0 0 24 24">
  <path d="M9.314,13.661c-5.328,.033-8.194,2.91-8.291,8.321-.005,.269,.099,.527,.287,.719,.188,.191,.444,.299,.713,.299h14.595c.269,0,.525-.107,.713-.299,.188-.191,.292-.45,.287-.719-.092-5.332-3.036-8.287-8.304-8.321Z"/>
  <path d="M21.478,11.202h-1.262v-1.262c0-.829-.672-1.5-1.5-1.5s-1.5,.671-1.5,1.5v1.262h-1.261c-.828,0-1.5,.671-1.5,1.5s.672,1.5,1.5,1.5h1.261v1.262c0,.828,.672,1.5,1.5,1.5s1.5-.672,1.5-1.5v-1.262h1.262c.828,0,1.5-.672,1.5-1.5s-.672-1.5-1.5-1.5Z"/>
  <path d="M9.326,12.309c3.611-.021,5.555-1.971,5.622-5.671-.062-3.56-2.111-5.614-5.634-5.637-3.561,.022-5.622,2.122-5.622,5.672s2.062,5.615,5.634,5.636Z"/>
</svg>
