<svg width="45" height="45" viewBox="0 0 45 45" fill="none" xmlns="http://www.w3.org/2000/svg">
<path d="M23.9062 4.21875C22.2187 4.21875 20.6719 4.64063 19.2656 5.625H13.0781C11.6719 4.64063 10.125 4.21875 8.4375 4.21875C3.79688 4.21875 0 8.01563 0 12.6562C0 17.2969 3.79688 21.0938 8.4375 21.0938C10.125 21.0938 11.6719 20.6719 13.0781 19.6875H19.2656C20.6719 20.6719 22.2187 21.0938 23.9062 21.0938C28.5469 21.0938 32.3438 17.2969 32.3438 12.6562C32.3438 8.01563 28.5469 4.21875 23.9062 4.21875ZM11.25 14.0625H9.84375V15.4688C9.84375 16.3125 9.28125 16.875 8.4375 16.875C7.59375 16.875 7.03125 16.3125 7.03125 15.4688V14.0625H5.625C4.78125 14.0625 4.21875 13.5 4.21875 12.6562C4.21875 11.8125 4.78125 11.25 5.625 11.25H7.03125V9.84375C7.03125 9 7.59375 8.4375 8.4375 8.4375C9.28125 8.4375 9.84375 9 9.84375 9.84375V11.25H11.25C12.0938 11.25 12.6562 11.8125 12.6562 12.6562C12.6562 13.5 12.0938 14.0625 11.25 14.0625ZM23.4844 15.0469C23.3438 15.1875 23.2031 15.3281 23.0625 15.3281C22.9219 15.3281 22.6406 15.4688 22.5 15.4688C22.0781 15.4688 21.7969 15.3281 21.5156 15.0469C21.2344 14.7656 21.0938 14.4844 21.0938 14.0625C21.0938 13.9219 21.0938 13.6406 21.2344 13.5C21.375 13.3594 21.375 13.2188 21.5156 13.0781C21.6563 12.9375 21.7969 12.7969 21.9375 12.7969C22.2188 12.6563 22.5 12.6562 22.7813 12.6562C22.9219 12.6562 22.9219 12.6563 23.0625 12.7969C23.2031 12.7969 23.2031 12.7969 23.3438 12.9375C23.4844 12.9375 23.4844 13.0781 23.625 13.0781C23.7656 13.2188 23.9062 13.3594 23.9062 13.5C23.9063 13.6406 23.9062 13.9219 23.9062 14.0625C23.9062 14.4844 23.7656 14.7656 23.4844 15.0469ZM26.5781 11.8125C26.4375 11.9531 26.4375 12.0937 26.2969 12.2344C26.0156 12.5156 25.7344 12.6562 25.3125 12.6562C24.8906 12.6562 24.6094 12.5156 24.3281 12.2344C24.0469 11.9531 23.9062 11.6719 23.9062 11.25C23.9062 10.8281 24.0469 10.5469 24.3281 10.2656C24.3281 10.2656 24.4687 10.125 24.6094 10.125C24.75 10.125 24.75 9.98437 24.8906 9.98437C25.0313 9.98437 25.0312 9.98438 25.1719 9.84375C25.4531 9.84375 25.7344 9.84375 26.0156 9.98437C26.1563 9.98437 26.2969 10.125 26.4375 10.2656L26.5781 10.4063C26.5781 10.5469 26.7188 10.5469 26.7188 10.6875C26.7188 10.8281 26.7188 10.8281 26.8594 10.9688C26.8594 11.1094 26.8594 11.1094 26.8594 11.25C26.7188 11.3906 26.7187 11.6719 26.5781 11.8125Z" fill="white"/>
<path d="M36.5625 23.9062C34.875 23.9062 33.3281 24.3281 31.9219 25.3125H25.7344C24.3281 24.3281 22.7813 23.9062 21.0938 23.9062C16.4531 23.9062 12.6562 27.7031 12.6562 32.3438C12.6562 36.9844 16.4531 40.7812 21.0938 40.7812C22.7813 40.7812 24.3281 40.3594 25.7344 39.375H31.9219C33.3281 40.3594 34.875 40.7812 36.5625 40.7812C41.2031 40.7812 45 36.9844 45 32.3438C45 27.7031 41.2031 23.9062 36.5625 23.9062ZM23.9062 33.75H22.5V35.1562C22.5 36 21.9375 36.5625 21.0938 36.5625C20.25 36.5625 19.6875 36 19.6875 35.1562V33.75H18.2812C17.4375 33.75 16.875 33.1875 16.875 32.3438C16.875 31.5 17.4375 30.9375 18.2812 30.9375H19.6875V29.5312C19.6875 28.6875 20.25 28.125 21.0938 28.125C21.9375 28.125 22.5 28.6875 22.5 29.5312V30.9375H23.9062C24.75 30.9375 25.3125 31.5 25.3125 32.3438C25.3125 33.1875 24.75 33.75 23.9062 33.75ZM36.4219 34.3125C36.2812 34.4531 36.2813 34.5938 36.1406 34.7344C36 34.875 35.8594 35.0156 35.7187 35.0156C35.5781 35.0156 35.2969 35.1562 35.1562 35.1562C34.7344 35.1562 34.4531 35.0156 34.1719 34.7344C34.0312 34.5938 33.8906 34.4531 33.8906 34.3125C33.75 34.1719 33.75 33.8906 33.75 33.75C33.75 33.6094 33.75 33.3281 33.8906 33.1875C34.0313 33.0469 34.0312 32.9062 34.1719 32.7656C34.3125 32.625 34.4531 32.4844 34.5938 32.4844C34.875 32.3438 35.2969 32.3438 35.7187 32.4844C35.8594 32.4844 36 32.625 36.1406 32.7656C36.2813 32.9062 36.4219 33.0469 36.4219 33.1875C36.4219 33.3281 36.5625 33.6094 36.5625 33.75C36.5625 33.8906 36.5625 34.1719 36.4219 34.3125ZM39.2344 31.5C39.0937 31.6406 39.0938 31.7813 38.9531 31.9219C38.8125 32.0625 38.6719 32.2031 38.5312 32.2031C38.3906 32.2031 38.1094 32.3438 37.9688 32.3438C37.8281 32.3438 37.5469 32.3437 37.4063 32.2031C37.2656 32.2031 37.125 32.0625 36.9844 31.9219C36.8437 31.7813 36.7031 31.6406 36.7031 31.5C36.7031 31.3594 36.5625 31.0781 36.5625 30.9375C36.5625 30.7969 36.5625 30.5156 36.7031 30.375C36.8438 30.2344 36.8437 30.0937 36.9844 29.9531C37.125 29.8125 37.2656 29.6719 37.4063 29.6719C37.9688 29.3906 38.5313 29.5312 38.9531 29.9531C39.0938 30.0937 39.2344 30.2344 39.2344 30.375C39.2344 30.5156 39.375 30.7969 39.375 30.9375C39.375 31.0781 39.375 31.3594 39.2344 31.5Z" fill="white"/>
</svg>
