<svg width="60" height="60" viewBox="0 0 60 60" fill="none" xmlns="http://www.w3.org/2000/svg">
<path d="M12.5 50C13.163 50 13.7989 49.7366 14.2678 49.2678C14.7366 48.7989 15 48.163 15 47.5V45H17.5C18.163 45 18.7989 44.7366 19.2678 44.2678C19.7366 43.7989 20 43.163 20 42.5C20 41.837 19.7366 41.2011 19.2678 40.7322C18.7989 40.2634 18.163 40 17.5 40H15V37.5C15 36.837 14.7366 36.2011 14.2678 35.7322C13.7989 35.2634 13.163 35 12.5 35C11.837 35 11.2011 35.2634 10.7322 35.7322C10.2634 36.2011 10 36.837 10 37.5V40H7.5C6.83696 40 6.20107 40.2634 5.73223 40.7322C5.26339 41.2011 5 41.837 5 42.5C5 43.163 5.26339 43.7989 5.73223 44.2678C6.20107 44.7366 6.83696 45 7.5 45H10V47.5C10 48.163 10.2634 48.7989 10.7322 49.2678C11.2011 49.7366 11.837 50 12.5 50Z" fill="#2CA9BC"/>
<path d="M22.5 42.5C22.4907 40.4564 21.8556 38.4647 20.6801 36.793C19.5045 35.1213 17.845 33.8499 15.925 33.15C17.6277 31.8199 19.5976 30.8733 21.7 30.375C19.6575 28.2559 18.2835 25.5827 17.7492 22.6884C17.2149 19.7941 17.5439 16.8066 18.6952 14.0979C19.8465 11.3892 21.7692 9.07902 24.2239 7.45514C26.6786 5.83125 29.5568 4.96539 32.5 4.96539C35.4432 4.96539 38.3214 5.83125 40.7761 7.45514C43.2308 9.07902 45.1535 11.3892 46.3048 14.0979C47.4561 16.8066 47.7851 19.7941 47.2508 22.6884C46.7165 25.5827 45.3425 28.2559 43.3 30.375C46.6201 31.1238 49.5869 32.9794 51.713 35.6371C53.8392 38.2948 54.9983 41.5965 55 45V47.5C55.0019 47.829 54.9388 48.1552 54.8144 48.4598C54.69 48.7644 54.5067 49.0414 54.275 49.275C53.675 49.85 48.075 55 32.5 55C26.6251 55.2048 20.7708 54.2007 15.3 52.05C17.369 51.4466 19.1876 50.1909 20.485 48.47C21.7825 46.7491 22.4892 44.6551 22.5 42.5Z" fill="white"/>
</svg>
