<svg width="161" height="161" viewBox="0 0 161 161" fill="none" xmlns="http://www.w3.org/2000/svg">
<g clip-path="url(#clip0_87_27)">
<g filter="url(#filter0_i_87_27)">
<path d="M80.5 0C121.206 0 155.506 30.3874 160.413 70.7968L100.478 78.0742C99.2516 67.9719 90.6765 60.375 80.5 60.375V0Z" fill="#4D793F"/>
</g>
<path d="M160.413 70.7968C164.445 103.999 147.526 136.236 117.91 151.779C88.2949 167.323 52.1536 162.934 27.1186 140.755C2.08362 118.576 -6.62907 83.2272 5.23119 51.9543C17.0915 20.6814 47.0536 0 80.5 0V60.375C72.1384 60.375 64.6479 65.5453 61.6828 73.3636C58.7177 81.1818 60.8959 90.019 67.1547 95.5638C73.4134 101.109 82.4487 102.206 89.8526 98.3198C97.2564 94.434 101.486 86.3748 100.478 78.0742L160.413 70.7968Z" fill="#67B150"/>
<path d="M90.0568 58L90.5256 55.1591L96.7045 50.6705C97.1165 50.3722 97.4716 50.0928 97.7699 49.8324C98.0729 49.5672 98.3168 49.295 98.5014 49.0156C98.6861 48.7363 98.8068 48.4261 98.8636 48.0852C98.9252 47.7112 98.8968 47.3916 98.7784 47.1264C98.6648 46.8565 98.4801 46.6506 98.2244 46.5085C97.9688 46.3665 97.661 46.2955 97.3011 46.2955C96.9366 46.2955 96.6027 46.3688 96.2997 46.5156C95.9967 46.6624 95.7434 46.8778 95.5398 47.1619C95.3409 47.446 95.2083 47.7917 95.142 48.1989H91.392C91.5625 47.1761 91.9389 46.2955 92.5213 45.5568C93.1084 44.8182 93.8518 44.25 94.7514 43.8523C95.6558 43.4545 96.6714 43.2557 97.7983 43.2557C98.9631 43.2557 99.9432 43.4427 100.739 43.8168C101.534 44.1861 102.109 44.7069 102.464 45.3793C102.824 46.0516 102.926 46.84 102.77 47.7443C102.675 48.303 102.464 48.857 102.138 49.4062C101.816 49.9555 101.297 50.5663 100.582 51.2386C99.8722 51.9062 98.8873 52.7017 97.6278 53.625L96.0795 54.7614L96.0653 54.8466H101.747L101.222 58H90.0568ZM108.839 58.1989C107.655 58.1989 106.639 58.0024 105.792 57.6094C104.944 57.2116 104.319 56.6648 103.917 55.9688C103.519 55.2727 103.398 54.4725 103.555 53.5682H107.475C107.423 53.8475 107.459 54.0985 107.582 54.321C107.71 54.5388 107.904 54.7093 108.164 54.8324C108.424 54.9555 108.725 55.017 109.066 55.017C109.473 55.017 109.84 54.9342 110.167 54.7685C110.498 54.6027 110.768 54.3873 110.977 54.1222C111.19 53.857 111.32 53.5777 111.367 53.2841C111.419 52.9811 111.37 52.7348 111.218 52.5455C111.067 52.3513 110.842 52.2093 110.543 52.1193C110.245 52.0246 109.895 51.9773 109.492 51.9773H107.93L108.384 49.25H109.776C110.179 49.25 110.548 49.1766 110.884 49.0298C111.22 48.883 111.5 48.6818 111.722 48.4261C111.945 48.1657 112.082 47.8722 112.134 47.5455C112.177 47.2945 112.156 47.0767 112.07 46.892C111.99 46.7027 111.845 46.5559 111.637 46.4517C111.433 46.3475 111.164 46.2955 110.827 46.2955C110.463 46.2955 110.112 46.3594 109.776 46.4872C109.44 46.6151 109.158 46.7926 108.931 47.0199C108.704 47.2472 108.569 47.5076 108.526 47.8011H104.776C104.923 46.911 105.29 46.125 105.877 45.4432C106.464 44.7614 107.203 44.2263 108.093 43.8381C108.988 43.4498 109.966 43.2557 111.026 43.2557C112.134 43.2557 113.076 43.4593 113.853 43.8665C114.629 44.2737 115.2 44.8134 115.565 45.4858C115.929 46.1581 116.045 46.892 115.913 47.6875C115.771 48.5445 115.385 49.1932 114.755 49.6335C114.125 50.0739 113.337 50.3343 112.39 50.4148V50.5284C113.422 50.6468 114.22 51.0256 114.783 51.6648C115.347 52.304 115.553 53.09 115.401 54.0227C115.273 54.8182 114.906 55.5308 114.3 56.1605C113.694 56.7902 112.918 57.2874 111.971 57.652C111.029 58.0166 109.985 58.1989 108.839 58.1989ZM120.268 56.0114L120.069 56.8068C119.913 57.4886 119.695 58.1397 119.416 58.7599C119.136 59.3849 118.859 59.9389 118.585 60.4219C118.31 60.9096 118.095 61.286 117.939 61.5511H115.524C115.633 61.3049 115.798 60.9309 116.021 60.429C116.243 59.9271 116.466 59.3589 116.689 58.7244C116.911 58.09 117.072 57.4508 117.172 56.8068L117.314 56.0114H120.268ZM130.13 43.4545L127.715 58H123.766L125.584 47.0909H125.499L122.005 48.9943L122.544 45.642L126.493 43.4545H130.13ZM139.48 55.2727L139.622 54.5057C139.735 53.8902 139.967 53.322 140.318 52.8011C140.673 52.2803 141.13 51.8613 141.689 51.544C142.247 51.2268 142.894 51.0682 143.627 51.0682C144.38 51.0682 144.991 51.2244 145.46 51.5369C145.929 51.8494 146.253 52.2661 146.433 52.7869C146.613 53.3078 146.644 53.8807 146.525 54.5057L146.383 55.2727C146.27 55.8835 146.035 56.4517 145.68 56.9773C145.33 57.4981 144.873 57.9171 144.309 58.2344C143.746 58.5516 143.092 58.7102 142.349 58.7102C141.606 58.7102 141.002 58.5516 140.538 58.2344C140.074 57.9171 139.752 57.4981 139.572 56.9773C139.397 56.4517 139.366 55.8835 139.48 55.2727ZM142.093 54.5057L141.951 55.2727C141.904 55.5379 141.925 55.803 142.015 56.0682C142.11 56.3333 142.344 56.4659 142.718 56.4659C143.111 56.4659 143.391 56.3381 143.556 56.0824C143.722 55.822 143.831 55.5521 143.883 55.2727L144.025 54.5057C144.077 54.2216 144.063 53.947 143.983 53.6818C143.907 53.4167 143.665 53.2841 143.258 53.2841C142.884 53.2841 142.609 53.4167 142.434 53.6818C142.259 53.947 142.145 54.2216 142.093 54.5057ZM133.258 46.9489L133.372 46.1818C133.467 45.5521 133.691 44.9792 134.047 44.4631C134.406 43.9422 134.87 43.5256 135.439 43.2131C136.007 42.9006 136.653 42.7443 137.377 42.7443C138.13 42.7443 138.736 42.9006 139.196 43.2131C139.655 43.5256 139.972 43.9422 140.147 44.4631C140.327 44.9792 140.37 45.5521 140.275 46.1818L140.162 46.9489C140.072 47.5739 139.849 48.1444 139.494 48.6605C139.139 49.1766 138.675 49.5885 138.102 49.8963C137.529 50.2041 136.871 50.358 136.127 50.358C135.384 50.358 134.785 50.2041 134.331 49.8963C133.876 49.5838 133.561 49.1695 133.386 48.6534C133.211 48.1326 133.168 47.5644 133.258 46.9489ZM135.872 46.1818L135.758 46.9489C135.716 47.233 135.737 47.5028 135.822 47.7585C135.912 48.0142 136.137 48.142 136.497 48.142C136.89 48.142 137.172 48.0142 137.342 47.7585C137.512 47.5028 137.619 47.233 137.662 46.9489L137.775 46.1818C137.818 45.8977 137.801 45.6231 137.725 45.358C137.654 45.0928 137.415 44.9602 137.008 44.9602C136.634 44.9602 136.359 45.0975 136.184 45.3722C136.014 45.642 135.91 45.9119 135.872 46.1818ZM132.591 58L145.005 43.4545H147.136L134.721 58H132.591Z" fill="white"/>
<path d="M28.8523 128L37.9545 114.432L37.9886 114.33H29.9432L30.5568 110.545H43.5114L42.8977 114.33L33.7273 128H28.8523ZM49.8075 128.239C48.7621 128.239 47.799 128.071 46.9183 127.736C46.0376 127.401 45.2962 126.875 44.6939 126.159C44.0916 125.437 43.6797 124.506 43.4581 123.364C43.2365 122.222 43.2621 120.847 43.5348 119.239C43.7678 117.847 44.1513 116.602 44.6854 115.506C45.2195 114.403 45.8757 113.466 46.6541 112.693C47.4325 111.915 48.3104 111.324 49.2876 110.92C50.2649 110.511 51.3132 110.307 52.4325 110.307C53.728 110.307 54.8331 110.551 55.7479 111.04C56.6683 111.523 57.3615 112.176 57.8274 113C58.2933 113.818 58.495 114.727 58.4325 115.727H53.8303C53.8303 115.222 53.6626 114.864 53.3274 114.653C52.9922 114.437 52.5916 114.33 52.1257 114.33C51.0973 114.33 50.2536 114.784 49.5945 115.693C48.9354 116.597 48.4723 117.756 48.2053 119.17L48.3416 118.932C48.6541 118.398 49.0575 117.949 49.5518 117.585C50.0518 117.222 50.603 116.946 51.2053 116.759C51.8132 116.571 52.4382 116.477 53.0803 116.477C54.1655 116.477 55.0774 116.727 55.8161 117.227C56.5547 117.727 57.0803 118.412 57.3928 119.281C57.7053 120.151 57.7678 121.136 57.5803 122.239C57.3814 123.455 56.9212 124.511 56.1996 125.409C55.478 126.307 54.5661 127.003 53.4638 127.497C52.3615 127.991 51.1428 128.239 49.8075 128.239ZM49.978 124.659C50.4837 124.659 50.9553 124.543 51.3928 124.31C51.8359 124.071 52.2053 123.747 52.5007 123.338C52.7962 122.923 52.978 122.455 53.0462 121.932C53.1143 121.489 53.0803 121.099 52.9439 120.764C52.8132 120.423 52.5973 120.159 52.2962 119.972C51.995 119.778 51.62 119.682 51.1712 119.682C50.8018 119.682 50.4467 119.75 50.1058 119.886C49.7649 120.023 49.4553 120.213 49.1768 120.457C48.8984 120.702 48.6655 120.991 48.478 121.327C48.2905 121.656 48.1655 122.017 48.103 122.409C48.0405 122.869 48.0774 123.267 48.2138 123.602C48.3501 123.937 48.5689 124.199 48.87 124.386C49.1768 124.568 49.5462 124.659 49.978 124.659ZM63.1264 125.614L62.8878 126.568C62.7003 127.386 62.4389 128.168 62.1037 128.912C61.7685 129.662 61.4361 130.327 61.1065 130.906C60.777 131.491 60.5185 131.943 60.331 132.261H57.4332C57.5639 131.966 57.7628 131.517 58.0298 130.915C58.2969 130.313 58.5639 129.631 58.831 128.869C59.098 128.108 59.2912 127.341 59.4105 126.568L59.581 125.614H63.1264ZM74.9134 110.307C75.9588 110.307 76.9219 110.474 77.8026 110.81C78.6832 111.145 79.4247 111.67 80.027 112.386C80.6293 113.097 81.0412 114.017 81.2628 115.148C81.4844 116.278 81.4588 117.642 81.1861 119.239C80.9474 120.642 80.5611 121.901 80.027 123.014C79.4986 124.128 78.8452 125.074 78.0668 125.852C77.2884 126.625 76.4105 127.216 75.4332 127.625C74.4616 128.034 73.4134 128.239 72.2884 128.239C70.9929 128.239 69.8849 127.994 68.9645 127.506C68.0497 127.017 67.3594 126.358 66.8935 125.528C66.4332 124.699 66.2315 123.773 66.2884 122.75H70.8906C70.8849 123.295 71.0497 123.676 71.3849 123.892C71.7259 124.108 72.1293 124.216 72.5952 124.216C73.6293 124.216 74.4759 123.761 75.1349 122.852C75.794 121.937 76.2543 120.756 76.5156 119.307L76.3793 119.545C76.0724 120.08 75.669 120.528 75.169 120.892C74.6747 121.256 74.1236 121.531 73.5156 121.719C72.9134 121.906 72.2884 122 71.6406 122C70.5611 122 69.652 121.75 68.9134 121.25C68.1747 120.75 67.6491 120.068 67.3366 119.205C67.0241 118.341 66.9588 117.364 67.1406 116.273C67.3452 115.068 67.8082 114.02 68.5298 113.128C69.2514 112.23 70.1634 111.537 71.2656 111.048C72.3679 110.554 73.5838 110.307 74.9134 110.307ZM74.7429 113.886C74.2429 113.886 73.7713 114.006 73.3281 114.244C72.8849 114.477 72.5156 114.798 72.2202 115.207C71.9247 115.611 71.7429 116.068 71.6747 116.58C71.6179 117.011 71.6548 117.395 71.7855 117.73C71.9162 118.065 72.1321 118.327 72.4332 118.514C72.7344 118.702 73.1065 118.795 73.5497 118.795C73.9247 118.795 74.2827 118.727 74.6236 118.591C74.9645 118.455 75.2741 118.267 75.5526 118.028C75.8366 117.784 76.0696 117.497 76.2514 117.168C76.4389 116.838 76.5611 116.483 76.6179 116.102C76.6861 115.659 76.652 115.273 76.5156 114.943C76.3793 114.608 76.1605 114.349 75.8594 114.168C75.5582 113.98 75.1861 113.886 74.7429 113.886ZM92.2976 124.727L92.468 123.807C92.6044 123.068 92.8828 122.386 93.3033 121.761C93.7294 121.136 94.2777 120.634 94.9482 120.253C95.6186 119.872 96.3942 119.682 97.2749 119.682C98.1783 119.682 98.9112 119.869 99.4737 120.244C100.036 120.619 100.425 121.119 100.641 121.744C100.857 122.369 100.894 123.057 100.752 123.807L100.582 124.727C100.445 125.46 100.164 126.142 99.7379 126.773C99.3175 127.398 98.7692 127.901 98.093 128.281C97.4169 128.662 96.6328 128.852 95.7408 128.852C94.8487 128.852 94.1243 128.662 93.5675 128.281C93.0107 127.901 92.6243 127.398 92.4084 126.773C92.1982 126.142 92.1612 125.46 92.2976 124.727ZM95.4339 123.807L95.2635 124.727C95.2067 125.045 95.2322 125.364 95.3402 125.682C95.4538 126 95.7351 126.159 96.1839 126.159C96.6555 126.159 96.9908 126.006 97.1896 125.699C97.3885 125.386 97.5192 125.062 97.5817 124.727L97.7521 123.807C97.8146 123.466 97.7976 123.136 97.701 122.818C97.6101 122.5 97.3203 122.341 96.8317 122.341C96.3828 122.341 96.0533 122.5 95.843 122.818C95.6328 123.136 95.4964 123.466 95.4339 123.807ZM84.8317 114.739L84.968 113.818C85.0817 113.062 85.3516 112.375 85.7777 111.756C86.2095 111.131 86.7663 110.631 87.4482 110.256C88.13 109.881 88.9055 109.693 89.7749 109.693C90.6783 109.693 91.4055 109.881 91.9567 110.256C92.5078 110.631 92.8885 111.131 93.0987 111.756C93.3146 112.375 93.3658 113.062 93.2521 113.818L93.1158 114.739C93.0078 115.489 92.7408 116.173 92.3146 116.793C91.8885 117.412 91.3317 117.906 90.6442 118.276C89.9567 118.645 89.1669 118.83 88.2749 118.83C87.3828 118.83 86.6641 118.645 86.1186 118.276C85.5732 117.901 85.1953 117.403 84.9851 116.784C84.7749 116.159 84.7237 115.477 84.8317 114.739ZM87.968 113.818L87.8317 114.739C87.7805 115.08 87.8061 115.403 87.9084 115.71C88.0163 116.017 88.2862 116.17 88.718 116.17C89.1896 116.17 89.5277 116.017 89.7322 115.71C89.9368 115.403 90.0646 115.08 90.1158 114.739L90.2521 113.818C90.3033 113.477 90.2834 113.148 90.1925 112.83C90.1072 112.511 89.8203 112.352 89.3317 112.352C88.8828 112.352 88.5533 112.517 88.343 112.847C88.1385 113.17 88.0135 113.494 87.968 113.818ZM84.0305 128L98.9283 110.545H101.485L86.5874 128H84.0305Z" fill="white"/>
</g>
<defs>
<filter id="filter0_i_87_27" x="80.5" y="0" width="80.9131" height="78.0742" filterUnits="userSpaceOnUse" color-interpolation-filters="sRGB">
<feFlood flood-opacity="0" result="BackgroundImageFix"/>
<feBlend mode="normal" in="SourceGraphic" in2="BackgroundImageFix" result="shape"/>
<feColorMatrix in="SourceAlpha" type="matrix" values="0 0 0 0 0 0 0 0 0 0 0 0 0 0 0 0 0 0 127 0" result="hardAlpha"/>
<feOffset dx="1"/>
<feGaussianBlur stdDeviation="1"/>
<feComposite in2="hardAlpha" operator="arithmetic" k2="-1" k3="1"/>
<feColorMatrix type="matrix" values="0 0 0 0 0 0 0 0 0 0 0 0 0 0 0 0 0 0 0.94 0"/>
<feBlend mode="normal" in2="shape" result="effect1_innerShadow_87_27"/>
</filter>
<clipPath id="clip0_87_27">
<rect width="161" height="161" fill="white"/>
</clipPath>
</defs>
</svg>
