<svg width="161" height="161" viewBox="0 0 161 161" fill="none" xmlns="http://www.w3.org/2000/svg">
<g clip-path="url(#clip0_87_18)">
<path d="M145.432 128.082C122.99 158.707 82.2008 169.488 47.5578 153.951C12.9147 138.414 -6.16247 100.783 1.78195 63.656C9.72637 26.5288 42.5323 0 80.5 0V60.375C71.0081 60.375 62.8066 67.0072 60.8205 76.289C58.8344 85.5708 63.6037 94.9785 72.2645 98.8628C80.9252 102.747 91.1226 100.052 96.7331 92.3955L145.432 128.082Z" fill="#74C85A"/>
<g filter="url(#filter0_i_87_18)">
<path d="M80.5 0C110.83 0 138.586 17.0477 152.3 44.1002C166.015 71.1526 163.36 103.617 145.432 128.082L96.7331 92.3955C101.215 86.2793 101.879 78.1632 98.4501 71.4C95.0215 64.6369 88.0826 60.375 80.5 60.375V0Z" fill="#4D793F"/>
</g>
<path d="M96.9091 59.1989C95.7254 59.1989 94.7098 59.0024 93.8622 58.6094C93.0147 58.2116 92.3897 57.6648 91.9872 56.9688C91.5895 56.2727 91.4688 55.4725 91.625 54.5682H95.5455C95.4934 54.8475 95.5289 55.0985 95.652 55.321C95.7798 55.5388 95.974 55.7093 96.2344 55.8324C96.4948 55.9555 96.7955 56.017 97.1364 56.017C97.5436 56.017 97.9105 55.9342 98.2372 55.7685C98.5687 55.6027 98.8385 55.3873 99.0469 55.1222C99.2599 54.857 99.3902 54.5777 99.4375 54.2841C99.4896 53.9811 99.4399 53.7348 99.2884 53.5455C99.1368 53.3513 98.9119 53.2093 98.6136 53.1193C98.3153 53.0246 97.965 52.9773 97.5625 52.9773H96L96.4545 50.25H97.8466C98.2491 50.25 98.6184 50.1766 98.9545 50.0298C99.2907 49.883 99.5701 49.6818 99.7926 49.4261C100.015 49.1657 100.152 48.8722 100.205 48.5455C100.247 48.2945 100.226 48.0767 100.141 47.892C100.06 47.7027 99.9157 47.5559 99.7074 47.4517C99.5038 47.3475 99.2339 47.2955 98.8977 47.2955C98.5331 47.2955 98.1828 47.3594 97.8466 47.4872C97.5104 47.6151 97.2287 47.7926 97.0014 48.0199C96.7741 48.2472 96.6392 48.5076 96.5966 48.8011H92.8466C92.9934 47.911 93.3603 47.125 93.9474 46.4432C94.5346 45.7614 95.2732 45.2263 96.1634 44.8381C97.0582 44.4498 98.036 44.2557 99.0966 44.2557C100.205 44.2557 101.147 44.4593 101.923 44.8665C102.7 45.2737 103.27 45.8134 103.635 46.4858C104 47.1581 104.116 47.892 103.983 48.6875C103.841 49.5445 103.455 50.1932 102.825 50.6335C102.196 51.0739 101.407 51.3343 100.46 51.4148V51.5284C101.492 51.6468 102.29 52.0256 102.854 52.6648C103.417 53.304 103.623 54.09 103.472 55.0227C103.344 55.8182 102.977 56.5308 102.371 57.1605C101.765 57.7902 100.988 58.2874 100.041 58.652C99.099 59.0166 98.0549 59.1989 96.9091 59.1989ZM110.348 59.1989C109.236 59.1989 108.279 59 107.479 58.6023C106.679 58.2045 106.089 57.6577 105.711 56.9616C105.332 56.2656 105.211 55.4678 105.348 54.5682H109.184C109.117 55.0653 109.245 55.4654 109.567 55.7685C109.889 56.0668 110.31 56.2159 110.831 56.2159C111.243 56.2159 111.617 56.1307 111.953 55.9602C112.29 55.785 112.571 55.5412 112.799 55.2287C113.026 54.9115 113.175 54.5398 113.246 54.1136C113.317 53.6875 113.291 53.3182 113.168 53.0057C113.045 52.6884 112.844 52.4446 112.564 52.2741C112.285 52.099 111.944 52.0114 111.542 52.0114C111.12 52.0114 110.718 52.1132 110.334 52.3168C109.951 52.5156 109.643 52.7926 109.411 53.1477L106.059 52.4659L107.962 44.4545H117.735L117.223 47.608H110.689L109.865 50.8182H109.951C110.254 50.3778 110.708 50.0133 111.314 49.7244C111.925 49.4309 112.597 49.2841 113.331 49.2841C114.198 49.2841 114.936 49.4853 115.547 49.8878C116.158 50.2902 116.601 50.8466 116.875 51.5568C117.15 52.267 117.209 53.0814 117.053 54C116.897 55.0133 116.513 55.9105 115.902 56.6918C115.292 57.473 114.51 58.0862 113.559 58.5312C112.607 58.9763 111.537 59.1989 110.348 59.1989ZM121.698 57.0114L121.499 57.8068C121.343 58.4886 121.125 59.1397 120.846 59.7599C120.566 60.3849 120.289 60.9389 120.015 61.4219C119.74 61.9096 119.525 62.286 119.368 62.5511H116.953C117.062 62.3049 117.228 61.9309 117.451 61.429C117.673 60.9271 117.896 60.3589 118.118 59.7244C118.341 59.09 118.502 58.4508 118.601 57.8068L118.743 57.0114H121.698ZM131.559 44.4545L129.145 59H125.196L127.014 48.0909H126.929L123.434 49.9943L123.974 46.642L127.923 44.4545H131.559ZM140.909 56.2727L141.051 55.5057C141.165 54.8902 141.397 54.322 141.748 53.8011C142.103 53.2803 142.56 52.8613 143.118 52.544C143.677 52.2268 144.323 52.0682 145.057 52.0682C145.81 52.0682 146.421 52.2244 146.89 52.5369C147.358 52.8494 147.683 53.2661 147.863 53.7869C148.042 54.3078 148.073 54.8807 147.955 55.5057L147.813 56.2727C147.699 56.8835 147.465 57.4517 147.11 57.9773C146.759 58.4981 146.302 58.9171 145.739 59.2344C145.176 59.5516 144.522 59.7102 143.779 59.7102C143.035 59.7102 142.432 59.5516 141.968 59.2344C141.504 58.9171 141.182 58.4981 141.002 57.9773C140.827 57.4517 140.796 56.8835 140.909 56.2727ZM143.523 55.5057L143.381 56.2727C143.334 56.5379 143.355 56.803 143.445 57.0682C143.54 57.3333 143.774 57.4659 144.148 57.4659C144.541 57.4659 144.82 57.3381 144.986 57.0824C145.152 56.822 145.261 56.5521 145.313 56.2727L145.455 55.5057C145.507 55.2216 145.493 54.947 145.412 54.6818C145.337 54.4167 145.095 54.2841 144.688 54.2841C144.314 54.2841 144.039 54.4167 143.864 54.6818C143.689 54.947 143.575 55.2216 143.523 55.5057ZM134.688 47.9489L134.801 47.1818C134.896 46.5521 135.121 45.9792 135.476 45.4631C135.836 44.9422 136.3 44.5256 136.868 44.2131C137.436 43.9006 138.083 43.7443 138.807 43.7443C139.56 43.7443 140.166 43.9006 140.625 44.2131C141.085 44.5256 141.402 44.9422 141.577 45.4631C141.757 45.9792 141.8 46.5521 141.705 47.1818L141.591 47.9489C141.501 48.5739 141.279 49.1444 140.924 49.6605C140.569 50.1766 140.105 50.5885 139.532 50.8963C138.959 51.2041 138.301 51.358 137.557 51.358C136.814 51.358 136.215 51.2041 135.76 50.8963C135.306 50.5838 134.991 50.1695 134.816 49.6534C134.641 49.1326 134.598 48.5644 134.688 47.9489ZM137.301 47.1818L137.188 47.9489C137.145 48.233 137.167 48.5028 137.252 48.7585C137.342 49.0142 137.567 49.142 137.926 49.142C138.319 49.142 138.601 49.0142 138.772 48.7585C138.942 48.5028 139.049 48.233 139.091 47.9489L139.205 47.1818C139.248 46.8977 139.231 46.6231 139.155 46.358C139.084 46.0928 138.845 45.9602 138.438 45.9602C138.064 45.9602 137.789 46.0975 137.614 46.3722C137.444 46.642 137.339 46.9119 137.301 47.1818ZM134.02 59L146.435 44.4545H148.566L136.151 59H134.02Z" fill="white"/>
<path d="M27.5341 128.239C26.4886 128.239 25.5256 128.071 24.6449 127.736C23.7642 127.401 23.0227 126.875 22.4205 126.159C21.8182 125.437 21.4062 124.506 21.1847 123.364C20.9631 122.222 20.9886 120.847 21.2614 119.239C21.4943 117.847 21.8778 116.602 22.4119 115.506C22.946 114.403 23.6023 113.466 24.3807 112.693C25.1591 111.915 26.0369 111.324 27.0142 110.92C27.9915 110.511 29.0398 110.307 30.1591 110.307C31.4545 110.307 32.5597 110.551 33.4744 111.04C34.3949 111.523 35.0881 112.176 35.554 113C36.0199 113.818 36.2216 114.727 36.1591 115.727H31.5568C31.5568 115.222 31.3892 114.864 31.054 114.653C30.7188 114.437 30.3182 114.33 29.8523 114.33C28.8239 114.33 27.9801 114.784 27.321 115.693C26.6619 116.597 26.1989 117.756 25.9318 119.17L26.0682 118.932C26.3807 118.398 26.7841 117.949 27.2784 117.585C27.7784 117.222 28.3295 116.946 28.9318 116.759C29.5398 116.571 30.1648 116.477 30.8068 116.477C31.892 116.477 32.804 116.727 33.5426 117.227C34.2813 117.727 34.8068 118.412 35.1193 119.281C35.4318 120.151 35.4943 121.136 35.3068 122.239C35.108 123.455 34.6477 124.511 33.9261 125.409C33.2045 126.307 32.2926 127.003 31.1903 127.497C30.0881 127.991 28.8693 128.239 27.5341 128.239ZM27.7045 124.659C28.2102 124.659 28.6818 124.543 29.1193 124.31C29.5625 124.071 29.9318 123.747 30.2273 123.338C30.5227 122.923 30.7045 122.455 30.7727 121.932C30.8409 121.489 30.8068 121.099 30.6705 120.764C30.5398 120.423 30.3239 120.159 30.0227 119.972C29.7216 119.778 29.3466 119.682 28.8977 119.682C28.5284 119.682 28.1733 119.75 27.8324 119.886C27.4915 120.023 27.1818 120.213 26.9034 120.457C26.625 120.702 26.392 120.991 26.2045 121.327C26.017 121.656 25.892 122.017 25.8295 122.409C25.767 122.869 25.804 123.267 25.9403 123.602C26.0767 123.937 26.2955 124.199 26.5966 124.386C26.9034 124.568 27.2727 124.659 27.7045 124.659ZM36.7706 125.273L37.3842 121.591L46.2479 110.545H49.5888L48.7706 115.455H46.8615L42.0888 121.455L42.0547 121.591H52.4183L51.8047 125.273H36.7706ZM44.8161 128L45.4638 124.148L45.8388 122.545L47.8161 110.545H52.2479L49.3501 128H44.8161ZM58.3608 125.614L58.1222 126.568C57.9347 127.386 57.6733 128.168 57.3381 128.912C57.0028 129.662 56.6705 130.327 56.3409 130.906C56.0114 131.491 55.7528 131.943 55.5653 132.261H52.6676C52.7983 131.966 52.9972 131.517 53.2642 130.915C53.5312 130.313 53.7983 129.631 54.0653 128.869C54.3324 128.108 54.5256 127.341 54.6449 126.568L54.8153 125.614H58.3608ZM70.1477 110.307C71.1932 110.307 72.1563 110.474 73.0369 110.81C73.9176 111.145 74.6591 111.67 75.2614 112.386C75.8636 113.097 76.2756 114.017 76.4972 115.148C76.7188 116.278 76.6932 117.642 76.4205 119.239C76.1818 120.642 75.7955 121.901 75.2614 123.014C74.733 124.128 74.0795 125.074 73.3011 125.852C72.5227 126.625 71.6449 127.216 70.6676 127.625C69.696 128.034 68.6477 128.239 67.5227 128.239C66.2273 128.239 65.1193 127.994 64.1989 127.506C63.2841 127.017 62.5938 126.358 62.1278 125.528C61.6676 124.699 61.4659 123.773 61.5227 122.75H66.125C66.1193 123.295 66.2841 123.676 66.6193 123.892C66.9602 124.108 67.3636 124.216 67.8295 124.216C68.8636 124.216 69.7102 123.761 70.3693 122.852C71.0284 121.937 71.4886 120.756 71.75 119.307L71.6136 119.545C71.3068 120.08 70.9034 120.528 70.4034 120.892C69.9091 121.256 69.358 121.531 68.75 121.719C68.1477 121.906 67.5227 122 66.875 122C65.7955 122 64.8864 121.75 64.1477 121.25C63.4091 120.75 62.8835 120.068 62.571 119.205C62.2585 118.341 62.1932 117.364 62.375 116.273C62.5795 115.068 63.0426 114.02 63.7642 113.128C64.4858 112.23 65.3977 111.537 66.5 111.048C67.6023 110.554 68.8182 110.307 70.1477 110.307ZM69.9773 113.886C69.4773 113.886 69.0057 114.006 68.5625 114.244C68.1193 114.477 67.75 114.798 67.4545 115.207C67.1591 115.611 66.9773 116.068 66.9091 116.58C66.8523 117.011 66.8892 117.395 67.0199 117.73C67.1506 118.065 67.3665 118.327 67.6676 118.514C67.9688 118.702 68.3409 118.795 68.7841 118.795C69.1591 118.795 69.517 118.727 69.858 118.591C70.1989 118.455 70.5085 118.267 70.7869 118.028C71.071 117.784 71.304 117.497 71.4858 117.168C71.6733 116.838 71.7955 116.483 71.8523 116.102C71.9205 115.659 71.8864 115.273 71.75 114.943C71.6136 114.608 71.3949 114.349 71.0938 114.168C70.7926 113.98 70.4205 113.886 69.9773 113.886ZM87.532 124.727L87.7024 123.807C87.8388 123.068 88.1172 122.386 88.5376 121.761C88.9638 121.136 89.5121 120.634 90.1825 120.253C90.853 119.872 91.6286 119.682 92.5092 119.682C93.4126 119.682 94.1456 119.869 94.7081 120.244C95.2706 120.619 95.6598 121.119 95.8757 121.744C96.0916 122.369 96.1286 123.057 95.9865 123.807L95.8161 124.727C95.6797 125.46 95.3984 126.142 94.9723 126.773C94.5518 127.398 94.0036 127.901 93.3274 128.281C92.6513 128.662 91.8672 128.852 90.9751 128.852C90.0831 128.852 89.3587 128.662 88.8018 128.281C88.245 127.901 87.8587 127.398 87.6428 126.773C87.4325 126.142 87.3956 125.46 87.532 124.727ZM90.6683 123.807L90.4979 124.727C90.4411 125.045 90.4666 125.364 90.5746 125.682C90.6882 126 90.9695 126.159 91.4183 126.159C91.8899 126.159 92.2251 126.006 92.424 125.699C92.6229 125.386 92.7536 125.062 92.8161 124.727L92.9865 123.807C93.049 123.466 93.032 123.136 92.9354 122.818C92.8445 122.5 92.5547 122.341 92.0661 122.341C91.6172 122.341 91.2876 122.5 91.0774 122.818C90.8672 123.136 90.7308 123.466 90.6683 123.807ZM80.0661 114.739L80.2024 113.818C80.3161 113.062 80.5859 112.375 81.0121 111.756C81.4439 111.131 82.0007 110.631 82.6825 110.256C83.3643 109.881 84.1399 109.693 85.0092 109.693C85.9126 109.693 86.6399 109.881 87.1911 110.256C87.7422 110.631 88.1229 111.131 88.3331 111.756C88.549 112.375 88.6001 113.062 88.4865 113.818L88.3501 114.739C88.2422 115.489 87.9751 116.173 87.549 116.793C87.1229 117.412 86.5661 117.906 85.8786 118.276C85.1911 118.645 84.4013 118.83 83.5092 118.83C82.6172 118.83 81.8984 118.645 81.353 118.276C80.8075 117.901 80.4297 117.403 80.2195 116.784C80.0092 116.159 79.9581 115.477 80.0661 114.739ZM83.2024 113.818L83.0661 114.739C83.0149 115.08 83.0405 115.403 83.1428 115.71C83.2507 116.017 83.5206 116.17 83.9524 116.17C84.424 116.17 84.7621 116.017 84.9666 115.71C85.1712 115.403 85.299 115.08 85.3501 114.739L85.4865 113.818C85.5376 113.477 85.5178 113.148 85.4268 112.83C85.3416 112.511 85.0547 112.352 84.5661 112.352C84.1172 112.352 83.7876 112.517 83.5774 112.847C83.3729 113.17 83.2479 113.494 83.2024 113.818ZM79.2649 128L94.1626 110.545H96.7195L81.8217 128H79.2649Z" fill="white"/>
</g>
<defs>
<filter id="filter0_i_87_18" x="80.5" y="0" width="81.5004" height="128.082" filterUnits="userSpaceOnUse" color-interpolation-filters="sRGB">
<feFlood flood-opacity="0" result="BackgroundImageFix"/>
<feBlend mode="normal" in="SourceGraphic" in2="BackgroundImageFix" result="shape"/>
<feColorMatrix in="SourceAlpha" type="matrix" values="0 0 0 0 0 0 0 0 0 0 0 0 0 0 0 0 0 0 127 0" result="hardAlpha"/>
<feOffset dx="1"/>
<feGaussianBlur stdDeviation="1"/>
<feComposite in2="hardAlpha" operator="arithmetic" k2="-1" k3="1"/>
<feColorMatrix type="matrix" values="0 0 0 0 0 0 0 0 0 0 0 0 0 0 0 0 0 0 0.94 0"/>
<feBlend mode="normal" in2="shape" result="effect1_innerShadow_87_18"/>
</filter>
<clipPath id="clip0_87_18">
<rect width="161" height="161" fill="white"/>
</clipPath>
</defs>
</svg>
