<svg width="60" height="60" viewBox="0 0 60 60" fill="none" xmlns="http://www.w3.org/2000/svg">
<path d="M30 12.5C41.7361 12.5 51.25 22.0139 51.25 33.75C51.25 45.4861 41.7361 55 30 55C18.2639 55 8.75 45.4861 8.75 33.75C8.75 22.0139 18.2639 12.5 30 12.5ZM30 20C29.0508 20 28.2663 20.7054 28.1421 21.6206L28.125 21.875V33.125L28.1421 33.3794C28.2663 34.2946 29.0508 35 30 35C30.9492 35 31.7337 34.2946 31.8579 33.3794L31.875 33.125V21.875L31.8579 21.6206C31.7337 20.7054 30.9492 20 30 20ZM47.9261 12.8065L48.1292 12.9606L51.0019 15.4606C51.7831 16.1404 51.8652 17.3248 51.1854 18.1059C50.5622 18.822 49.5151 18.9507 48.7433 18.4435L48.5401 18.2894L45.6674 15.7894C44.8863 15.1096 44.8041 13.9252 45.4839 13.1441C46.1071 12.428 47.1542 12.2993 47.9261 12.8065ZM35.625 6.25C36.6605 6.25 37.5 7.08947 37.5 8.125C37.5 9.07424 36.7946 9.85873 35.8794 9.98288L35.625 10H24.375C23.3395 10 22.5 9.16053 22.5 8.125C22.5 7.17576 23.2054 6.39127 24.1206 6.26712L24.375 6.25H35.625Z" fill="white"/>
</svg>
