<svg width="47" height="47" viewBox="0 0 47 47" fill="none" xmlns="http://www.w3.org/2000/svg">
<path d="M46 38.0272V20.6657C46 18.2054 44.9315 15.8829 43.1045 14.3724L29.6395 3.23927C26.0282 0.253576 20.9718 0.253576 17.3606 3.23927L3.89545 14.3724C2.06855 15.8829 1 18.2054 1 20.6657V38.0272C1 42.4305 4.35787 46 8.5 46H13.5C14.8807 46 16 44.8807 16 43.5V35.3695C16 30.9663 19.3577 31.5 23.5 31.5C27.6423 31.5 31 30.9663 31 35.3695V43.5C31 44.8807 32.1192 46 33.5 46H38.5C42.6423 46 46 42.4305 46 38.0272Z" fill="white"/>
</svg>
