<svg width="55" height="55" viewBox="0 0 55 55" fill="none" xmlns="http://www.w3.org/2000/svg">
<g clip-path="url(#clip0_124_28)">
<path d="M27.5 -0.00323486C25.0691 -0.00323486 22.7405 0.547627 21.2064 2.2938C19.6722 4.03998 19.623 5.90175 19.5342 7.03451C19.4454 8.16728 19.3715 8.87238 19.2003 9.3092C19.0291 9.74593 18.8878 10.0796 17.8165 10.6992C16.7452 11.3188 16.3864 11.2741 15.9232 11.2043C15.4599 11.1344 14.8137 10.8463 13.79 10.3569C12.7662 9.86753 11.1316 8.9792 8.85484 9.43699C6.57809 9.89486 4.93748 11.6394 3.72202 13.7482C2.50655 15.857 1.81878 18.1526 2.56134 20.3566C3.30389 22.5606 4.88898 23.5346 5.82392 24.1779C6.75885 24.8213 7.33124 25.2378 7.62323 25.6047C7.91523 25.9716 8.1333 26.2609 8.1333 27.5C8.1333 28.7392 7.91523 29.0283 7.62323 29.3953C7.33124 29.7622 6.75885 30.1786 5.82392 30.822C4.88898 31.4654 3.30389 32.4394 2.56134 34.6434C1.81878 36.8474 2.50655 39.1429 3.72202 41.2517C4.93748 43.3606 6.57809 45.1052 8.85484 45.563C11.1316 46.0208 12.7662 45.1324 13.79 44.6431C14.8137 44.1538 15.4599 43.8655 15.9232 43.7957C16.3864 43.7259 16.7452 43.6812 17.8165 44.3008C18.8878 44.9203 19.0291 45.254 19.2003 45.6908C19.3715 46.1276 19.4454 46.8327 19.5342 47.9654C19.623 49.0983 19.6722 50.96 21.2064 52.7062C22.7405 54.4523 25.0691 55.0032 27.5 55.0032C29.9309 55.0032 32.2595 54.4523 33.7937 52.7062C35.3279 50.96 35.3771 49.0983 35.4659 47.9654C35.5547 46.8327 35.6286 46.1276 35.7998 45.6908C35.971 45.254 36.1123 44.9203 37.1836 44.3008C38.2548 43.6812 38.6136 43.7259 39.0769 43.7957C39.5401 43.8655 40.1864 44.1538 41.2101 44.6431C42.2338 45.1324 43.8685 46.0208 46.1453 45.563C48.422 45.1052 50.0626 43.3606 51.2781 41.2517C52.4935 39.1429 53.1813 36.8474 52.4387 34.6434C51.6961 32.4394 50.1111 31.4654 49.1762 30.822C48.2412 30.1786 47.6689 29.7622 47.3768 29.3953C47.0848 29.0283 46.8668 28.7392 46.8668 27.5C46.8668 26.2609 47.0848 25.9716 47.3768 25.6047C47.6689 25.2378 48.2412 24.8213 49.1762 24.1779C50.1111 23.5346 51.6961 22.5606 52.4387 20.3566C53.1813 18.1526 52.4935 15.857 51.2781 13.7482C50.0626 11.6394 48.422 9.89486 46.1453 9.43699C43.8685 8.9792 42.2338 9.86753 41.2101 10.3569C40.1864 10.8463 39.5401 11.1344 39.0769 11.2043C38.6136 11.2741 38.2548 11.3188 37.1836 10.6992C36.1123 10.0796 35.971 9.74593 35.7998 9.3092C35.6286 8.87238 35.5547 8.16728 35.4659 7.03451C35.3771 5.90175 35.3279 4.03998 33.7937 2.2938C32.2595 0.547627 29.9309 -0.00323486 27.5 -0.00323486ZM27.5022 15.5815C34.1204 15.5815 39.4185 20.8786 39.4185 27.5C39.4185 34.1214 34.1204 39.4184 27.5022 39.4184C20.884 39.4184 15.5859 34.1214 15.5859 27.5C15.5859 20.8786 20.884 15.5815 27.5022 15.5815Z" fill="white"/>
<path d="M27.5001 20.1677C23.4835 20.1677 20.1667 23.4865 20.1667 27.5C20.1667 31.5136 23.4835 34.8324 27.5001 34.8324C31.5166 34.8324 34.8333 31.5136 34.8333 27.5C34.8333 23.4865 31.5166 20.1677 27.5001 20.1677Z" fill="white"/>
</g>
<defs>
<clipPath id="clip0_124_28">
<rect width="55" height="55" fill="white"/>
</clipPath>
</defs>
</svg>
