<svg width="55" height="55" viewBox="0 0 55 55" fill="none" xmlns="http://www.w3.org/2000/svg">
<path d="M37.8157 0H28.333C23.0226 0 18.8502 4.48148 18.8502 10.1852V30.5556C18.8502 31.1667 19.2295 31.9815 19.7985 32.3889C19.9881 32.5926 20.3674 32.5926 20.7468 32.5926C21.1261 32.5926 21.3157 32.5926 21.5054 32.3889L32.5054 26.4815H37.8157C43.1261 26.4815 47.2985 22 47.2985 16.2963V10.1852C47.2985 4.48148 43.1261 0 37.8157 0ZM30.2295 18.3333H28.333C27.195 18.3333 26.4364 17.5185 26.4364 16.2963C26.4364 15.0741 27.195 14.2593 28.333 14.2593H30.2295C31.3674 14.2593 32.1261 15.0741 32.1261 16.2963C32.1261 17.5185 31.3674 18.3333 30.2295 18.3333ZM34.0226 12.2222H28.333C27.195 12.2222 26.4364 11.4074 26.4364 10.1852C26.4364 8.96296 27.195 8.14815 28.333 8.14815H34.0226C35.1605 8.14815 35.9192 8.96296 35.9192 10.1852C35.9192 11.4074 35.1605 12.2222 34.0226 12.2222Z" fill="white"/>
<path d="M47.4882 46.2407C46.7295 46.037 46.1606 45.4259 45.9709 44.6111C46.7295 43.5926 47.2985 42.1667 47.2985 40.7407V36.6667C47.2985 33.2037 44.833 30.5555 41.6088 30.5555C38.3847 30.5555 35.9192 33.2037 35.9192 36.6667V40.7407C35.9192 42.1667 36.4882 43.5926 37.2468 44.6111C37.0571 45.4259 36.4882 46.037 35.7295 46.2407C32.8847 47.0555 30.7985 49.5 30.4192 52.5555C30.2295 53.1667 30.4192 53.7778 30.7985 54.1852C31.1778 54.5926 31.7468 55 32.3157 55H51.2813C51.8502 55 52.4192 54.7963 52.7985 54.1852C53.1778 53.7778 53.3675 53.1667 53.1778 52.5555C52.4192 49.5 50.1433 47.0555 47.4882 46.2407Z" fill="white"/>
<path d="M17.1434 46.2407C16.3847 46.037 15.8158 45.4259 15.6261 44.6111C16.3847 43.5926 16.9537 42.1667 16.9537 40.7407V36.6667C16.9537 33.2037 14.4882 30.5555 11.2641 30.5555C8.03992 30.5555 5.5744 33.2037 5.5744 36.6667V40.7407C5.5744 42.1667 6.14337 43.5926 6.90199 44.6111C6.71233 45.4259 6.14337 46.037 5.38475 46.2407C2.53992 47.0555 0.453712 49.5 0.0744026 52.5555C-0.115253 53.1667 0.0744026 53.7778 0.453714 54.1852C0.643369 54.7963 1.21233 55 1.7813 55H20.7468C21.3157 55 21.8847 54.7963 22.264 54.1852C22.6433 53.7778 22.833 53.1667 22.6433 52.5555C22.0743 49.5 19.7985 47.0555 17.1434 46.2407Z" fill="white"/>
</svg>
