<svg width="55" height="55" viewBox="0 0 55 55" fill="none" xmlns="http://www.w3.org/2000/svg">
<path d="M29.2187 5.15625C27.1562 5.15625 25.2657 5.67188 23.5468 6.875H15.9843C14.2657 5.67188 12.375 5.15625 10.3125 5.15625C4.64063 5.15625 0 9.79688 0 15.4687C0 21.1407 4.64063 25.7813 10.3125 25.7813C12.375 25.7813 14.2657 25.2657 15.9843 24.0625H23.5468C25.2657 25.2657 27.1562 25.7813 29.2187 25.7813C34.8907 25.7813 39.5313 21.1407 39.5313 15.4687C39.5313 9.79688 34.8907 5.15625 29.2187 5.15625ZM13.75 17.1875H12.0312V18.9063C12.0312 19.9375 11.3437 20.625 10.3125 20.625C9.28125 20.625 8.59375 19.9375 8.59375 18.9063V17.1875H6.875C5.84375 17.1875 5.15625 16.5 5.15625 15.4687C5.15625 14.4375 5.84375 13.75 6.875 13.75H8.59375V12.0312C8.59375 11 9.28125 10.3125 10.3125 10.3125C11.3437 10.3125 12.0312 11 12.0312 12.0312V13.75H13.75C14.7813 13.75 15.4687 14.4375 15.4687 15.4687C15.4687 16.5 14.7813 17.1875 13.75 17.1875ZM28.7032 18.3907C28.5313 18.5625 28.3593 18.7343 28.1875 18.7343C28.0157 18.7343 27.6718 18.9063 27.5 18.9063C26.9843 18.9063 26.6407 18.7343 26.2968 18.3907C25.9532 18.0468 25.7813 17.7032 25.7813 17.1875C25.7813 17.0157 25.7813 16.6718 25.9532 16.5C26.125 16.3282 26.125 16.1563 26.2968 15.9843C26.4688 15.8125 26.6407 15.6407 26.8125 15.6407C27.1563 15.4688 27.5 15.4687 27.8438 15.4687C28.0157 15.4687 28.0157 15.4688 28.1875 15.6407C28.3593 15.6407 28.3593 15.6407 28.5313 15.8125C28.7032 15.8125 28.7032 15.9843 28.875 15.9843C29.0468 16.1563 29.2187 16.3282 29.2187 16.5C29.2188 16.6718 29.2187 17.0157 29.2187 17.1875C29.2187 17.7032 29.0468 18.0468 28.7032 18.3907ZM32.4843 14.4375C32.3125 14.6093 32.3125 14.7812 32.1407 14.9532C31.7968 15.2968 31.4532 15.4687 30.9375 15.4687C30.4218 15.4687 30.0782 15.2968 29.7343 14.9532C29.3907 14.6093 29.2187 14.2657 29.2187 13.75C29.2187 13.2343 29.3907 12.8907 29.7343 12.5468C29.7343 12.5468 29.9062 12.375 30.0782 12.375C30.25 12.375 30.25 12.2031 30.4218 12.2031C30.5938 12.2031 30.5937 12.2031 30.7657 12.0312C31.1093 12.0312 31.4532 12.0313 31.7968 12.2031C31.9688 12.2031 32.1407 12.375 32.3125 12.5468L32.4843 12.7188C32.4843 12.8907 32.6563 12.8907 32.6563 13.0625C32.6563 13.2343 32.6563 13.2343 32.8282 13.4063C32.8282 13.5782 32.8282 13.5782 32.8282 13.75C32.6563 13.9218 32.6562 14.2657 32.4843 14.4375Z" fill="white"/>
<path d="M44.6875 29.2187C42.625 29.2187 40.7343 29.7343 39.0157 30.9375H31.4532C29.7343 29.7343 27.8438 29.2187 25.7813 29.2187C20.1093 29.2187 15.4687 33.8593 15.4687 39.5313C15.4687 45.2032 20.1093 49.8437 25.7813 49.8437C27.8438 49.8437 29.7343 49.3282 31.4532 48.125H39.0157C40.7343 49.3282 42.625 49.8437 44.6875 49.8437C50.3593 49.8437 55 45.2032 55 39.5313C55 33.8593 50.3593 29.2187 44.6875 29.2187ZM29.2187 41.25H27.5V42.9687C27.5 44 26.8125 44.6875 25.7813 44.6875C24.75 44.6875 24.0625 44 24.0625 42.9687V41.25H22.3437C21.3125 41.25 20.625 40.5625 20.625 39.5313C20.625 38.5 21.3125 37.8125 22.3437 37.8125H24.0625V36.0937C24.0625 35.0625 24.75 34.375 25.7813 34.375C26.8125 34.375 27.5 35.0625 27.5 36.0937V37.8125H29.2187C30.25 37.8125 30.9375 38.5 30.9375 39.5313C30.9375 40.5625 30.25 41.25 29.2187 41.25ZM44.5157 41.9375C44.3437 42.1093 44.3438 42.2813 44.1718 42.4532C44 42.625 43.8282 42.7968 43.6562 42.7968C43.4843 42.7968 43.1407 42.9687 42.9687 42.9687C42.4532 42.9687 42.1093 42.7968 41.7657 42.4532C41.5937 42.2813 41.4218 42.1093 41.4218 41.9375C41.25 41.7657 41.25 41.4218 41.25 41.25C41.25 41.0782 41.25 40.7343 41.4218 40.5625C41.5938 40.3907 41.5937 40.2187 41.7657 40.0468C41.9375 39.875 42.1093 39.7032 42.2813 39.7032C42.625 39.5313 43.1407 39.5313 43.6562 39.7032C43.8282 39.7032 44 39.875 44.1718 40.0468C44.3438 40.2187 44.5157 40.3907 44.5157 40.5625C44.5157 40.7343 44.6875 41.0782 44.6875 41.25C44.6875 41.4218 44.6875 41.7657 44.5157 41.9375ZM47.9532 38.5C47.7812 38.6718 47.7813 38.8438 47.6093 39.0157C47.4375 39.1875 47.2657 39.3593 47.0937 39.3593C46.9218 39.3593 46.5782 39.5313 46.4063 39.5313C46.2343 39.5313 45.8907 39.5312 45.7188 39.3593C45.5468 39.3593 45.375 39.1875 45.2032 39.0157C45.0312 38.8438 44.8593 38.6718 44.8593 38.5C44.8593 38.3282 44.6875 37.9843 44.6875 37.8125C44.6875 37.6407 44.6875 37.2968 44.8593 37.125C45.0313 36.9532 45.0312 36.7812 45.2032 36.6093C45.375 36.4375 45.5468 36.2657 45.7188 36.2657C46.4063 35.9218 47.0938 36.0937 47.6093 36.6093C47.7813 36.7812 47.9532 36.9532 47.9532 37.125C47.9532 37.2968 48.125 37.6407 48.125 37.8125C48.125 37.9843 48.125 38.3282 47.9532 38.5Z" fill="white"/>
</svg>
